<svg width="170" height="43" viewBox="0 0 170 43" fill="none" xmlns="http://www.w3.org/2000/svg">
<path d="M31.7593 12.5518L28.8671 12.1169C27.4616 11.9056 26.0426 11.8062 24.6236 11.8062H24.3262H22.245C21.745 11.8062 21.2449 11.8434 20.7449 11.9056L19.8935 12.0174C19.6907 12.0423 19.5015 12.0796 19.2988 12.1169L18.7312 12.2287C18.5015 12.2784 18.2717 12.3406 18.042 12.4027L17.4338 12.5891C17.2581 12.6388 17.0689 12.701 16.8932 12.7755L16.4878 12.9247L16.258 13.0117C15.9607 13.1235 15.6769 13.2478 15.4066 13.3969L15.2715 13.4715C15.1904 13.5212 15.0958 13.5709 15.0147 13.6331L14.9471 13.6828C14.7174 13.8443 14.4876 14.0183 14.2849 14.2172L14.2309 14.2669C14.2038 14.2917 14.1768 14.3166 14.1633 14.3415C14.0011 14.5652 13.893 14.8013 13.8254 15.0498C13.8119 15.1244 13.8119 15.199 13.8389 15.2736C13.9065 15.4475 14.0146 15.5967 14.1633 15.7085L14.5147 15.9695C14.5687 16.0068 14.6363 16.0441 14.7039 16.0814L14.7985 16.1311C14.839 16.1559 14.8931 16.1684 14.9471 16.1808L15.1498 16.2429C15.2309 16.2678 15.3255 16.2926 15.4201 16.3051H15.4337C16.0553 16.3796 16.6905 16.3796 17.3122 16.3051L17.4608 16.2926L20.407 15.7707C20.7854 15.7085 21.1503 15.6215 21.5152 15.5097L23.9478 14.8013L25.7047 14.4285L26.9346 14.2669C27.3805 14.2047 27.8265 14.2047 28.2725 14.242L31.7593 14.5403V15.5718C31.7593 15.7955 31.7322 16.0192 31.6647 16.2305C31.6376 16.3424 31.5836 16.4542 31.5295 16.5536L31.2187 17.1502C30.7727 17.8958 30.2456 18.6042 29.678 19.2629C29.5429 19.4245 29.3807 19.586 29.232 19.7228L27.84 21.0028L26.894 21.8728L23.5965 25.2283C23.2721 25.5639 22.9342 25.887 22.5693 26.1977L18.9204 29.4538L16.2851 30.1498C16.1499 30.1871 16.0283 30.2244 15.8931 30.2741L14.9471 30.6096C14.5282 30.7588 14.1227 30.9203 13.7308 31.1192L12.555 31.6909C12.2037 31.8649 11.8658 32.0761 11.5685 32.3247C10.9738 32.8218 10.4873 33.4059 10.1359 34.0646L9.86564 35.0588L3.2435 37.2959L0 38.7872L7.29787 30.7091L13.6497 23.7494L17.2987 20.021L19.5961 19.2753L19.3123 19.8719C19.2312 20.0459 19.1637 20.2323 19.0961 20.4187L18.9745 20.8164C18.9339 20.9407 18.9204 21.0774 18.9204 21.2017V21.3508C18.9204 21.5372 18.961 21.7112 19.0556 21.8728C19.1502 22.0344 19.2853 22.1711 19.461 22.2456L19.5556 22.2953C19.6637 22.3451 19.7989 22.3699 19.9205 22.3699H20.0827C20.2043 22.3699 20.3259 22.345 20.434 22.2829L21.2179 21.8728L23.2586 20.3939C23.61 20.1453 23.9478 19.8719 24.2587 19.5736L25.5696 18.3681C25.9074 18.0574 26.2183 17.7094 26.4886 17.3366C26.5832 17.2123 26.6237 17.0756 26.6237 16.9265C26.6237 16.7525 26.5291 16.6033 26.3805 16.5039L26.2994 16.4542C26.2453 16.4169 26.1777 16.3921 26.1102 16.3796C25.7318 16.3051 25.3398 16.3299 24.9749 16.4169L23.6505 16.7773L18.7853 18.1444L16.8662 18.8155C16.258 19.0268 15.6364 19.2132 15.0012 19.3748L13.8389 19.673C13.6227 19.7228 13.4065 19.7725 13.1902 19.7973C12.6902 19.8595 12.1902 19.8595 11.6766 19.8097L11.4874 19.7973C11.2171 19.7725 10.9468 19.7228 10.6765 19.6606L10.0954 19.5115C9.75753 19.4245 9.43318 19.3126 9.10883 19.1759L8.40607 18.8777C7.85197 18.6415 7.31139 18.3433 6.82486 17.9953L5.27069 16.9016L3.71651 15.4724C3.22998 15.025 2.75697 14.5403 2.32451 14.0432L1.78392 13.4218C1.50012 13.0987 1.24334 12.7383 1.02711 12.3778L0.675729 11.8062L1.71635 12.7631C2.01367 13.0365 2.32451 13.2727 2.66237 13.4964C3.21647 13.8568 3.82463 14.155 4.4463 14.4036L4.6355 14.4782C4.95985 14.6024 5.29771 14.6894 5.63558 14.7392L5.73018 14.7516C5.86533 14.7764 6.00047 14.7764 6.13562 14.7764H6.59512C6.87892 14.7764 7.14921 14.7267 7.4195 14.6397L8.10875 14.4036L8.12226 14.3912C8.83854 13.4094 9.63589 12.4773 10.5008 11.6197C10.7981 11.3215 11.1225 11.0605 11.4739 10.8243C12.7307 9.97925 14.1092 9.28328 15.5418 8.73645L16.204 8.48789C16.9338 8.21448 17.6771 7.97835 18.4474 7.80436L19.2042 7.63037C19.7448 7.50609 20.2854 7.41909 20.8395 7.35695L22.1774 7.22025C22.3531 7.20782 22.5423 7.18296 22.718 7.18296L25.0155 7.07111L24.3398 5.95259L29.0699 3.83984L29.8132 5.4679C30.0429 5.96502 30.2456 6.46214 30.4213 6.95926L31.016 8.59975C31.07 8.73646 31.1106 8.87316 31.1511 9.00987L31.4619 10.1408C31.5836 10.5758 31.6511 11.0108 31.6917 11.4582L31.7593 12.5518Z" fill="black"/>
<path d="M107.116 32.9465L106.576 32.2381C105.792 31.219 105.089 30.1502 104.44 29.0565C103.292 27.0929 102.278 25.0547 101.44 22.9668L100.954 21.7489L100.264 20.27C100.183 20.1084 100.224 19.922 100.359 19.7977L100.413 19.748H103.386L106.089 17.1381H99.6023C99.4266 16.554 99.305 15.9699 99.2644 15.3609L99.1968 14.5407L99.1563 13.9814C99.0887 12.9499 99.1158 11.9184 99.2509 10.8993L99.4131 9.54466C99.5347 8.57528 99.7374 7.61833 100.035 6.68623L100.4 5.53044C100.765 4.34978 101.238 3.18155 101.805 2.06304L102.846 0L98.7914 1.36707L96.4263 2.28674C96.2912 2.33645 96.1831 2.41102 96.075 2.49802C95.9939 2.57259 95.9263 2.64715 95.8723 2.73415C95.656 3.05727 95.4803 3.40526 95.3452 3.76567L94.9397 4.82204C94.8992 4.90904 94.8046 4.97118 94.71 4.95875L92.1557 4.73505C92.0882 4.72262 92.0071 4.72262 91.9395 4.72262C91.8314 4.72262 91.7368 4.7599 91.6692 4.82204L91.6557 4.83447C91.3854 5.08303 91.1151 5.35644 90.8583 5.62986C90.115 6.42525 89.4528 7.28277 88.8717 8.19001L88.4663 8.82384C88.1554 9.32096 87.8446 9.81808 87.5608 10.3276L87.0743 11.1976C86.3309 12.5149 85.6958 13.8696 85.1552 15.2615L85.1417 15.2864L84.6011 16.902L82.9793 17.0263L82.6415 17.7098C82.4117 18.1697 82.2495 18.6543 82.1685 19.139L83.8037 19.0272C83.8848 19.0272 83.9524 19.0645 83.9794 19.1266L84.02 19.2136C84.047 19.2509 84.0605 19.3006 84.0605 19.3503C84.0605 19.5492 84.047 19.748 84.02 19.9468L83.7902 21.5003L83.6551 22.7431L83.5875 23.4764C83.5469 23.9859 83.5199 24.483 83.5199 24.9926C83.5199 25.5643 83.5605 26.136 83.6551 26.6952L83.7902 27.59L83.9254 28.0872L86.2228 26.4715L88.5203 24.8559C88.5203 23.5261 88.6284 22.2087 88.8311 20.9038L88.9258 20.2575L89.196 19.3876H89.3312L94.0613 19.5119C94.237 19.7604 94.3586 20.0338 94.3992 20.3321L94.6019 21.5003L94.8451 22.6686C95.1289 24.0356 95.5074 25.4027 95.9533 26.7325L96.4128 28.0747C96.5615 28.4973 96.7237 28.9074 96.8994 29.3299C97.2643 30.1626 97.7102 30.958 98.2508 31.6913C98.6968 32.1014 99.2104 32.4494 99.7645 32.7228L100.373 33.021C100.765 33.2075 101.156 33.3815 101.562 33.5182L110.144 36.5382L109.508 35.8298C108.671 34.8977 107.873 33.9283 107.116 32.9465ZM93.5207 17.3867L91.9125 17.2997C91.5476 17.2748 91.1692 17.25 90.8043 17.1878L89.6015 17.0263C89.9664 15.9451 90.4124 14.9011 90.9664 13.8944L91.3313 13.2233C91.6287 12.6889 91.9395 12.167 92.2909 11.6574L92.5612 11.2473C92.9396 10.7005 93.345 10.1785 93.791 9.68137C93.8721 9.75594 93.9261 9.86779 93.9261 9.97964V11.558L93.8721 12.254C93.818 13.0245 93.791 13.8074 93.791 14.578V14.8763C93.791 15.6344 93.8856 16.3925 94.0613 17.1381L93.9802 17.2127C93.8586 17.337 93.6964 17.3991 93.5207 17.3867Z" fill="black"/>
<path d="M131.226 33.3069L130.037 32.1138C128.942 31.0078 127.996 29.7898 127.226 28.4725C126.834 27.8013 126.496 27.1054 126.213 26.397L125.348 24.16C125.212 23.7996 125.104 23.4391 125.037 23.0539L125.023 23.0042C124.739 21.5128 124.564 19.9966 124.51 18.4804C124.483 17.7596 124.523 17.0512 124.645 16.3304L124.753 15.622C124.915 14.578 125.226 13.5465 125.645 12.5647L125.942 11.8687C126.023 11.6699 126.199 11.5083 126.415 11.4337C126.645 11.3468 126.875 11.297 127.118 11.2722L129.186 11.0609L133.24 10.8123C133.591 10.7254 133.929 10.5886 134.227 10.3774L134.321 10.3152L142.7 4.72266L133.375 4.84694L130.375 5.02093C129.578 5.07064 128.794 5.1452 128.01 5.25706L124.739 5.71689L123.604 5.87845C123.185 5.94059 122.78 6.01516 122.374 6.12701L121.172 6.45014C120.847 6.53714 120.523 6.63656 120.212 6.74841L118.415 7.38224C118.036 7.51894 117.671 7.66808 117.306 7.82964L115.414 8.6996C115.049 8.86116 114.698 9.04758 114.347 9.24643L113.793 9.55713C112.887 10.0667 112.036 10.6508 111.238 11.297L110.184 12.167C110.063 12.2664 109.941 12.3658 109.833 12.4777L109.644 12.6517C109.346 12.9251 109.09 13.2358 108.873 13.5714C108.725 13.8075 108.644 14.0809 108.644 14.3543V14.665C108.644 15.4107 108.752 16.1688 108.968 16.8896C109.022 17.076 109.09 17.25 109.157 17.424L109.563 18.3934C110.022 19.4746 110.563 20.531 111.184 21.5501L111.617 22.2585L115.671 18.2815L115.482 17.4986C115.428 17.2749 115.401 17.0387 115.401 16.815C115.401 16.5541 115.441 16.2931 115.536 16.0445L115.55 15.9948C115.631 15.7835 115.739 15.5847 115.887 15.4107C116.009 15.2616 116.158 15.1248 116.32 15.0006C116.698 14.7147 117.104 14.4537 117.536 14.23L118.469 13.7453C118.685 13.6335 118.901 13.5465 119.131 13.4719L119.766 13.2731C119.928 13.2234 120.09 13.1985 120.253 13.1985C120.334 13.1985 120.388 13.2731 120.374 13.3352L119.198 17.3992L118.117 17.1506L117.833 19.2261C117.752 19.8226 117.712 20.4316 117.712 21.0405V22.1094C117.712 22.6935 117.766 23.29 117.86 23.8617L118.171 25.614C118.225 25.9372 118.32 26.2479 118.442 26.5586L118.779 27.4037C118.969 27.8635 119.225 28.2736 119.563 28.6465L119.577 28.6589C120.131 29.2678 120.807 29.765 121.563 30.1254L123.104 30.8586C123.564 31.0823 124.037 31.2687 124.523 31.4427L126.037 31.9523C126.969 32.2754 127.929 32.5488 128.902 32.7725L131.226 33.3069Z" fill="black"/>
<path d="M158.526 32.5613L157.337 31.3682C156.242 30.2622 155.296 29.0442 154.526 27.7269C154.134 27.0557 153.796 26.3598 153.512 25.6514L152.647 23.4144C152.512 23.0539 152.404 22.6935 152.336 22.3083L152.323 22.2586C152.039 20.7672 151.863 19.251 151.809 17.7348C151.782 17.014 151.823 16.3056 151.944 15.5848L152.052 14.8764C152.215 13.8324 152.526 12.8009 152.944 11.8191L153.242 11.1231C153.323 10.9243 153.499 10.7627 153.715 10.6881C153.945 10.6011 154.174 10.5514 154.418 10.5266L156.485 10.3153L160.54 10.0667C160.891 9.97975 161.229 9.84304 161.526 9.63177L161.621 9.56963L170 3.97705L160.675 4.10133L157.675 4.27532C156.877 4.32503 156.093 4.3996 155.31 4.51145L152.039 4.97129L150.904 5.13285C150.485 5.19499 150.079 5.26956 149.674 5.38141L148.471 5.70453C148.147 5.79153 147.822 5.89095 147.512 6.0028L145.714 6.63663C145.336 6.77334 144.971 6.92247 144.606 7.08404L142.714 7.95399C142.349 8.11556 141.998 8.30197 141.646 8.50082L141.092 8.81152C140.187 9.32107 139.335 9.90518 138.538 10.5514L137.484 11.4214C137.362 11.5208 137.241 11.6202 137.132 11.7321L136.943 11.9061C136.646 12.1795 136.389 12.4902 136.173 12.8257C136.024 13.0619 135.943 13.3353 135.943 13.6087V13.9194C135.943 14.6651 136.051 15.4232 136.267 16.144C136.322 16.3304 136.389 16.5044 136.457 16.6784L136.862 17.6478C137.322 18.729 137.862 19.7854 138.484 20.8045L138.916 21.5129L142.971 17.5359L142.781 16.753C142.727 16.5293 142.7 16.2931 142.7 16.0694C142.7 15.8085 142.741 15.5475 142.836 15.2989L142.849 15.2492C142.93 15.0379 143.038 14.8391 143.187 14.6651C143.309 14.5159 143.457 14.3792 143.619 14.255C143.998 13.9691 144.403 13.7081 144.836 13.4844L145.768 12.9997C145.984 12.8879 146.201 12.8009 146.43 12.7263L147.066 12.5275C147.228 12.4778 147.39 12.4529 147.552 12.4529C147.633 12.4529 147.687 12.5275 147.674 12.5896L146.498 16.6536L145.417 16.405L145.133 18.4805C145.052 19.077 145.011 19.686 145.011 20.2949V21.3637C145.011 21.9479 145.065 22.5444 145.16 23.1161L145.471 24.8684C145.525 25.1916 145.62 25.5023 145.741 25.813L146.079 26.6581C146.268 27.1179 146.525 27.528 146.863 27.9008L146.876 27.9133C147.431 28.5222 148.106 29.0194 148.863 29.3798L150.404 30.113C150.863 30.3367 151.336 30.5231 151.823 30.6971L153.336 31.2067C154.269 31.5298 155.228 31.8032 156.201 32.0269L158.526 32.5613Z" fill="black"/>
<path d="M26.2183 29.4537L28.259 27.664C28.7049 27.2788 29.1239 26.8811 29.5158 26.4585L33.1648 22.6183C33.4756 22.2827 33.7864 21.9472 34.0838 21.5868L36.3542 18.8899L38.1381 16.541C38.3949 16.2055 38.6246 15.8451 38.8409 15.4847L39.395 14.5401C39.5301 14.304 39.6112 14.0306 39.6112 13.7572C39.6112 13.5459 39.5301 13.3346 39.395 13.1606L39.3274 13.0861C39.2463 12.9866 39.1382 12.8996 39.0166 12.8499L38.476 12.6014C38.4219 12.5765 38.3679 12.5517 38.3003 12.5392L37.7327 12.3901C37.5435 12.3404 37.3408 12.3155 37.138 12.3155H36.8948H36.2191L39.7328 7.84147L41.6249 7.46864L45.6793 6.72296L47.8821 6.3874C48.5714 6.27555 49.2741 6.20099 49.9769 6.1637L50.4634 6.12642C50.7067 6.11399 50.9364 6.10156 51.1797 6.10156H51.6392L51.504 6.68567C51.423 7.03366 51.3013 7.38164 51.1392 7.7172C50.4905 9.12155 49.6931 10.4638 48.7606 11.7314L47.4497 13.5086C47.1794 13.869 46.9091 14.2294 46.6118 14.5774L44.8684 16.6529L40.4086 21.8726L37.9489 24.4825C37.8813 24.5571 37.8408 24.6565 37.8408 24.7683C37.8408 24.8305 37.8678 24.8802 37.9084 24.9175C37.9489 24.9548 38.0165 24.9796 38.0706 24.9796H38.2462C38.5165 24.818 38.8139 24.7062 39.1382 24.6689L39.3274 24.6441C39.5031 24.6192 39.6923 24.6068 39.8815 24.5943L41.9898 24.5073C42.4763 24.4825 42.9628 24.4949 43.4494 24.5446L44.8954 24.6689C45.3414 24.7062 45.7874 24.6938 46.2334 24.6441H46.2739C46.4361 24.6192 46.5983 24.5819 46.7334 24.5073L47.0037 24.3831C47.2064 24.2961 47.328 24.1097 47.328 23.9108V23.538C47.328 23.4261 47.3145 23.3143 47.2875 23.2024L47.1118 22.407C47.0713 22.2206 47.0172 22.0342 46.9496 21.8602L46.0847 19.5113L51.3554 17.8957L52.896 21.3755C53.0447 21.7111 53.2069 22.0342 53.3826 22.3573L54.207 23.799C54.5583 24.4203 54.9368 25.0417 55.3422 25.6383L56.518 27.3906C56.9504 28.0245 57.4099 28.6458 57.8964 29.2548L59.0587 30.6965L57.7072 31.815L53.3555 30.51C52.1122 30.1372 50.8554 29.8638 49.558 29.6649L44.4765 28.9193C42.9358 28.6956 41.3816 28.6334 39.841 28.7204L37.976 28.8323L35.6379 29.0684C34.7595 29.1554 33.8945 29.3045 33.0431 29.5158L32.2458 29.7022C31.5565 29.8638 30.8808 30.0502 30.2186 30.2739L28.1103 30.945L26.2183 29.4537Z" fill="black"/>
<path d="M53.1123 5.09473L54.1935 7.66731C54.3827 8.10229 54.5854 8.53727 54.8016 8.97225L55.3828 10.0783C55.8558 10.9856 56.4234 11.8431 57.0721 12.6385C57.2207 12.8249 57.4099 12.9989 57.6127 13.148L57.7478 13.2475C57.8965 13.3593 58.0992 13.3966 58.2749 13.3345L59.4101 13.0113C59.6263 12.9492 59.8561 12.9492 60.0723 13.0238L60.3021 13.0983C60.4642 13.148 60.6129 13.235 60.7345 13.3469C60.9643 13.5582 61.14 13.8191 61.2616 14.105L62.0454 16.1556C62.4914 17.3114 63.005 18.4548 63.5861 19.5609L63.6672 19.71C64.2078 20.7415 64.8295 21.7233 65.5457 22.6554C65.9106 23.1277 66.3701 23.5254 66.9107 23.8236C67.2621 24.0225 67.6675 24.1219 68.073 24.1219H68.1C68.3838 24.1219 68.6541 24.0349 68.8568 23.8609L69.2758 23.4384C70.5596 22.1707 72.1544 21.2138 73.9248 20.6421C73.9248 20.6421 74.1951 21.0274 74.1951 21.3008V21.6363C74.1951 22.0464 74.114 22.4441 73.9653 22.8294C73.5869 23.7615 73.0598 24.6563 72.4111 25.4517L71.3435 26.7815C70.911 27.3283 70.3975 27.813 69.8299 28.2356L68.7352 29.0682C68.5054 29.2422 68.2216 29.3292 67.9243 29.3292H67.8162C67.5729 29.3292 67.3432 29.2298 67.181 29.0558C66.9918 28.8321 66.8702 28.5587 66.8296 28.2728C66.7756 27.7384 66.762 27.1916 66.8161 26.6572C66.8566 26.2844 66.9918 25.9364 67.208 25.6257L67.4107 25.3523L64.4375 26.4708L62.0049 30.9449L58.0857 39.1473L56.1936 43L58.7614 42.2543L61.4238 41.3595C62.3563 41.0488 63.2347 40.6386 64.0726 40.1415C64.7619 39.7314 65.3971 39.2219 65.9377 38.6502L69.1812 35.1704L77.0196 25.8618C77.6548 25.1161 78.1954 24.3083 78.6684 23.4632C78.7495 23.3265 78.8035 23.165 78.8306 23.0158L78.8576 22.904C78.8981 22.73 78.8981 22.5436 78.8441 22.3696C78.7089 21.8849 78.5333 21.4126 78.29 20.9652L77.5737 19.3869L79.3306 18.6412L80.6821 16.4042L76.6277 17.647L76.1412 16.7521C75.9249 16.3544 75.7628 15.9319 75.6411 15.5093L75.6141 15.3975C75.479 14.9252 75.479 14.4157 75.6141 13.9434C75.6546 13.7694 75.7763 13.6203 75.9249 13.5209C76.3844 13.2226 76.925 13.0113 77.4791 12.9119C77.8981 12.8373 78.3305 12.8001 78.763 12.8001C79.5063 12.8001 80.2361 12.8746 80.9524 13.0238L81.0875 13.0486L81.1686 12.6012C81.2091 12.4148 81.1551 12.2159 81.0334 12.0544L79.6414 10.3145C78.9927 9.50665 78.1278 8.87282 77.1142 8.48755L76.3574 8.20171C75.9114 8.04015 75.4519 7.89101 74.9924 7.77916L73.5869 7.44361C73.2761 7.36904 72.9517 7.3069 72.6409 7.25719C72.4247 7.2199 72.1949 7.2199 71.9787 7.24476L71.7354 7.28205C71.4921 7.31933 71.2624 7.3939 71.0732 7.51818L70.8164 7.66731C70.6407 7.76674 70.4921 7.90344 70.3704 8.05258L70.2353 8.21414C70.1812 8.28871 70.1272 8.36328 70.1001 8.45027L69.9785 8.7734C69.9109 8.95982 69.8839 9.17109 69.9109 9.36994L70.0596 10.5382C70.1137 10.9607 70.1947 11.3957 70.3029 11.8058L70.3569 12.0295C70.5732 12.8622 70.8434 13.6824 71.1948 14.4903L71.8976 16.1556L73.1139 18.7655L71.2489 19.2999C71.0462 19.362 70.857 19.3993 70.6407 19.4117L69.938 19.4739C69.7082 19.4987 69.4785 19.4863 69.2487 19.449L68.7892 19.3869C68.4379 19.2999 68.1135 19.1383 67.8567 18.9022C67.6675 18.7282 67.5324 18.5293 67.4378 18.3056L67.0729 17.4357C66.9648 17.1623 66.8702 16.9013 66.7891 16.6154C66.7756 16.5657 66.762 16.5036 66.762 16.4539V16.2177C66.762 15.9443 66.8702 15.6709 67.0458 15.4596C67.208 15.2732 67.4107 15.0992 67.6135 14.9501L67.8297 14.801L67.3026 12.8001C67.0188 11.7312 66.6404 10.6997 66.1539 9.70549L65.816 8.94739L65.5863 8.43784C65.4782 8.20171 65.3025 7.99044 65.0727 7.82887L64.5186 7.44361C64.0456 7.12048 63.5185 6.84707 62.978 6.64822L61.9373 6.26295C61.3832 6.06411 60.8021 5.90254 60.221 5.79069L58.856 5.5297C58.1938 5.40543 57.5181 5.306 56.8423 5.25629L55.5449 5.15687C55.0179 5.11958 54.4908 5.09473 53.9637 5.09473H53.1123Z" fill="black"/>
</svg>
