<svg width="25" height="25" viewBox="0 0 25 25" fill="none" xmlns="http://www.w3.org/2000/svg">
<g clip-path="url(#clip0)">
<path d="M20.7448 16.3625C20.3406 15.8521 20.4563 15.625 20.7448 15.1688C20.75 15.1635 24.0865 10.5531 24.4302 8.98958L24.4323 8.98854C24.6031 8.41875 24.4323 8 23.6062 8H20.8729C20.1771 8 19.8562 8.35937 19.6844 8.76146C19.6844 8.76146 18.2927 12.0927 16.324 14.2521C15.6885 14.876 15.3948 15.076 15.0479 15.076C14.8771 15.076 14.6115 14.876 14.6115 14.3063V8.98854C14.6115 8.30521 14.4167 8 13.8406 8H9.54271C9.10625 8 8.84687 8.31875 8.84687 8.61563C8.84687 9.26354 9.83125 9.4125 9.93333 11.2354V15.1906C9.93333 16.0573 9.77604 16.2167 9.42708 16.2167C8.49792 16.2167 6.24271 12.8719 4.90625 9.04375C4.63646 8.30104 4.37292 8.00104 3.67187 8.00104H0.9375C0.157292 8.00104 0 8.36042 0 8.7625C0 9.47292 0.929166 13.0052 4.32083 17.6719C6.58125 20.8573 9.76458 22.5833 12.6604 22.5833C14.401 22.5833 14.6135 22.2 14.6135 21.5406C14.6135 18.4969 14.4562 18.2094 15.3281 18.2094C15.7323 18.2094 16.4281 18.4094 18.0531 19.9458C19.9104 21.7677 20.2156 22.5833 21.2552 22.5833H23.9885C24.7677 22.5833 25.1625 22.2 24.9354 21.4438C24.4156 19.8531 20.9031 16.5813 20.7448 16.3625V16.3625Z" fill="white"/>
</g>
<defs>
<clipPath id="clip0">
<rect width="25" height="25" fill="white"/>
</clipPath>
</defs>
</svg>
