<svg width="283" height="80" viewBox="0 0 283 80" fill="none" xmlns="http://www.w3.org/2000/svg">
<path d="M52.8148 23.3526L48.0052 22.5434C45.6679 22.1503 43.3081 21.9653 40.9483 21.9653H40.4539H36.9928C36.1613 21.9653 35.3297 22.0347 34.4981 22.1503L33.0823 22.3584C32.7451 22.4047 32.4305 22.474 32.0934 22.5434L31.1495 22.7515C30.7674 22.844 30.3853 22.9596 30.0033 23.0752L28.9919 23.422C28.6998 23.5145 28.3851 23.6301 28.093 23.7688L27.4187 24.0463L27.0367 24.2081C26.5422 24.4162 26.0703 24.6474 25.6208 24.9249L25.396 25.0636C25.2612 25.1561 25.1039 25.2486 24.969 25.3642L24.8566 25.4567C24.4746 25.7572 24.0925 26.0809 23.7554 26.4509L23.6655 26.5434C23.6206 26.5896 23.5756 26.6359 23.5531 26.6821C23.2834 27.0983 23.1036 27.5376 22.9913 28C22.9688 28.1388 22.9688 28.2775 23.0137 28.4162C23.1261 28.7399 23.3059 29.0174 23.5531 29.2255L24.1375 29.711C24.2274 29.7804 24.3397 29.8497 24.4521 29.9191L24.6094 30.0116C24.6769 30.0578 24.7668 30.081 24.8566 30.1041L25.1938 30.2197C25.3286 30.2659 25.4859 30.3122 25.6433 30.3353H25.6657C26.6995 30.474 27.7558 30.474 28.7897 30.3353L29.0369 30.3122L33.9363 29.3411C34.5656 29.2255 35.1724 29.0636 35.7792 28.8555L39.8246 27.5376L42.7462 26.844L44.7914 26.5434C45.5331 26.4278 46.2747 26.4278 47.0164 26.4971L52.8148 27.052V28.9711C52.8148 29.3873 52.7698 29.8035 52.6574 30.1966C52.6125 30.4046 52.5226 30.6127 52.4327 30.7977L51.9158 31.9075C51.1741 33.2948 50.2976 34.6127 49.3537 35.8382C49.129 36.1388 48.8593 36.4393 48.612 36.6937L46.2972 39.0752L44.724 40.6937L39.2402 46.9364C38.7009 47.5607 38.139 48.1619 37.5322 48.7399L31.4641 54.7977L27.0816 56.0925C26.8569 56.1619 26.6546 56.2312 26.4299 56.3237L24.8566 56.948C24.1599 57.2255 23.4857 57.526 22.834 57.896L20.8787 58.9596C20.2943 59.2833 19.7325 59.6763 19.2381 60.1388C18.2492 61.0636 17.4401 62.1503 16.8558 63.3757L16.4063 65.2255L5.39385 69.3873L0 72.1619L12.1362 57.133L22.6991 44.185L28.7672 37.2486L32.5878 35.8613L32.1159 36.9711C31.981 37.2948 31.8687 37.6416 31.7563 37.9885L31.554 38.7283C31.4866 38.9596 31.4641 39.2139 31.4641 39.4451V39.7226C31.4641 40.0694 31.5315 40.3931 31.6889 40.6937C31.8462 40.9942 32.0709 41.2486 32.3631 41.3873L32.5204 41.4798C32.7002 41.5723 32.9249 41.6185 33.1272 41.6185H33.3969C33.5992 41.6185 33.8014 41.5723 33.9812 41.4567L35.2848 40.6937L38.6784 37.9422C39.2627 37.4798 39.8246 36.9711 40.3415 36.4162L42.5215 34.1734C43.0834 33.5954 43.6003 32.948 44.0498 32.2544C44.2071 32.0231 44.2745 31.7688 44.2745 31.4914C44.2745 31.1677 44.1172 30.8902 43.87 30.7052L43.7351 30.6127C43.6452 30.5434 43.5328 30.4971 43.4205 30.474C42.7912 30.3353 42.1394 30.3815 41.5326 30.5434L39.3301 31.2139L31.2394 33.7572L28.048 35.0058C27.0367 35.3989 26.0028 35.7457 24.9465 36.0463L23.0137 36.6012C22.6542 36.6937 22.2946 36.7861 21.935 36.8324C21.1034 36.948 20.2719 36.948 19.4179 36.8555L19.1032 36.8324C18.6537 36.7861 18.2042 36.6937 17.7547 36.5781L16.7883 36.3006C16.2265 36.1388 15.6871 35.9307 15.1477 35.6763L13.9791 35.1214C13.0576 34.6821 12.1586 34.1272 11.3496 33.4798L8.765 31.4451L6.18045 28.7861C5.37137 27.9538 4.58477 27.052 3.86559 26.1272L2.96662 24.9711C2.49465 24.37 2.06764 23.6994 1.70805 23.0289L1.12372 21.9653L2.85424 23.7457C3.34868 24.2544 3.86559 24.6937 4.42745 25.1099C5.3489 25.7804 6.36025 26.3353 7.39407 26.7977L7.70871 26.9364C8.24809 27.1677 8.80995 27.3295 9.37181 27.422L9.52913 27.4451C9.75387 27.4914 9.97862 27.4914 10.2034 27.4914H10.9675C11.4395 27.4914 11.8889 27.3989 12.3384 27.237L13.4846 26.7977L13.5071 26.7746C14.6982 24.948 16.0242 23.2139 17.4626 21.6185C17.957 21.0636 18.4964 20.5781 19.0807 20.1388C21.1709 18.5665 23.4632 17.2717 25.8455 16.2544L26.9468 15.7919C28.1604 15.2833 29.3965 14.844 30.6775 14.5203L31.9361 14.1966C32.835 13.9653 33.734 13.8035 34.6555 13.6879L36.8804 13.4336C37.1726 13.4104 37.4872 13.3642 37.7794 13.3642L41.6001 13.1561L40.4763 11.0752L48.3424 7.14453L49.5784 10.1734C49.9605 11.0983 50.2976 12.0231 50.5898 12.948L51.5787 16C51.6686 16.2544 51.736 16.5087 51.8034 16.763L52.3203 18.8671C52.5226 19.6763 52.635 20.4856 52.7024 21.3179L52.8148 23.3526Z" fill="black"/>
<path d="M178.132 61.2948L177.233 59.9769C175.929 58.0809 174.761 56.0925 173.682 54.0578C171.771 50.4046 170.086 46.6127 168.693 42.7283L167.883 40.4624L166.737 37.711C166.602 37.4104 166.67 37.0636 166.895 36.8324L166.984 36.7399H171.929L176.424 31.8844H165.636C165.344 30.7977 165.142 29.711 165.074 28.578L164.962 27.052L164.894 26.0116C164.782 24.0925 164.827 22.1734 165.052 20.2775L165.321 17.7572C165.524 15.9538 165.861 14.1734 166.355 12.4393L166.962 10.289C167.569 8.09249 168.355 5.91908 169.299 3.83815L171.03 0L164.288 2.54335L160.355 4.25433C160.13 4.34682 159.95 4.48555 159.77 4.6474C159.635 4.78613 159.523 4.92486 159.433 5.08671C159.073 5.68786 158.781 6.33526 158.557 7.00578L157.882 8.9711C157.815 9.13295 157.658 9.24855 157.5 9.22543L153.253 8.80925C153.14 8.78613 153.005 8.78613 152.893 8.78613C152.713 8.78613 152.556 8.85549 152.444 8.9711L152.421 8.99422C151.972 9.45665 151.522 9.96531 151.095 10.474C149.859 11.9538 148.758 13.5491 147.791 15.237L147.117 16.4162C146.6 17.341 146.083 18.2659 145.611 19.2139L144.802 20.8324C143.566 23.2832 142.51 25.8035 141.611 28.3931L141.588 28.4393L140.689 31.4451L137.993 31.6763L137.431 32.948C137.049 33.8035 136.779 34.7052 136.644 35.6069L139.363 35.3988C139.498 35.3988 139.611 35.4682 139.656 35.5838L139.723 35.7457C139.768 35.815 139.79 35.9075 139.79 36C139.79 36.3699 139.768 36.7399 139.723 37.1098L139.341 40L139.116 42.3121L139.004 43.6763C138.936 44.6243 138.891 45.5491 138.891 46.4971C138.891 47.5607 138.959 48.6243 139.116 49.6647L139.341 51.3295L139.566 52.2543L143.386 49.2486L147.207 46.2428C147.207 43.7688 147.387 41.3179 147.724 38.8902L147.881 37.6879L148.331 36.0694H148.555L156.421 36.3006C156.714 36.763 156.916 37.2717 156.983 37.8266L157.32 40L157.725 42.1734C158.197 44.7168 158.826 47.2601 159.568 49.7341L160.332 52.2312C160.579 53.0173 160.849 53.7803 161.141 54.5665C161.748 56.1156 162.49 57.5954 163.389 58.9595C164.13 59.7225 164.984 60.3699 165.906 60.8786L166.917 61.4335C167.569 61.7803 168.221 62.104 168.895 62.3584L183.166 67.9769L182.11 66.659C180.716 64.9249 179.39 63.1214 178.132 61.2948ZM155.523 32.3468L152.848 32.185C152.241 32.1387 151.612 32.0925 151.005 31.9769L149.005 31.6763C149.612 29.6647 150.353 27.7225 151.275 25.8497L151.882 24.6012C152.376 23.6069 152.893 22.6358 153.477 21.6879L153.927 20.9249C154.556 19.9075 155.23 18.9364 155.972 18.0116C156.107 18.1503 156.197 18.3584 156.197 18.5665V21.5029L156.107 22.7977C156.017 24.2312 155.972 25.6879 155.972 27.1214V27.6763C155.972 29.0867 156.129 30.4971 156.421 31.8844L156.287 32.0231C156.084 32.2543 155.815 32.3699 155.523 32.3468Z" fill="black"/>
<path d="M218.226 61.9653L216.249 59.7457C214.428 57.6879 212.855 55.422 211.574 52.9711C210.922 51.7225 210.36 50.4277 209.888 49.1098L208.45 44.948C208.225 44.2775 208.045 43.6069 207.933 42.8902L207.911 42.7977C207.439 40.0231 207.146 37.2023 207.057 34.3815C207.012 33.0405 207.079 31.7225 207.281 30.3815L207.461 29.0636C207.731 27.1214 208.248 25.2023 208.944 23.3757L209.439 22.0809C209.574 21.711 209.866 21.4104 210.225 21.2717C210.608 21.1098 210.99 21.0173 211.394 20.9711L214.833 20.578L221.575 20.1156C222.159 19.9538 222.721 19.6994 223.216 19.3064L223.373 19.1908L237.307 8.78613L221.8 9.01735L216.81 9.34104C215.484 9.43353 214.181 9.57226 212.877 9.78035L207.439 10.6358L205.551 10.9364C204.854 11.052 204.18 11.1908 203.506 11.3988L201.505 12C200.966 12.1619 200.427 12.3468 199.91 12.5549L196.921 13.7341C196.291 13.9884 195.685 14.2659 195.078 14.5665L191.931 16.185C191.324 16.4856 190.74 16.8324 190.156 17.2023L189.234 17.7803C187.729 18.7283 186.313 19.815 184.987 21.0173L183.234 22.6358C183.031 22.8208 182.829 23.0058 182.649 23.2139L182.335 23.5376C181.84 24.0462 181.413 24.6243 181.054 25.2486C180.806 25.6879 180.672 26.1965 180.672 26.7052V27.2832C180.672 28.6705 180.851 30.0809 181.211 31.422C181.301 31.7688 181.413 32.0925 181.526 32.4162L182.2 34.2197C182.964 36.2312 183.863 38.1965 184.897 40.0925L185.616 41.4104L192.358 34.0116L192.044 32.5549C191.954 32.1387 191.909 31.6994 191.909 31.2832C191.909 30.7977 191.976 30.3121 192.134 29.8497L192.156 29.7572C192.291 29.3642 192.471 28.9942 192.718 28.6705C192.92 28.3931 193.167 28.1387 193.437 27.9075C194.066 27.3757 194.741 26.8902 195.46 26.474L197.01 25.5723C197.37 25.3642 197.73 25.2023 198.112 25.0636L199.168 24.6936C199.438 24.6012 199.707 24.5549 199.977 24.5549C200.112 24.5549 200.202 24.6936 200.179 24.8092L198.224 32.3699L196.426 31.9075L195.954 35.7688C195.819 36.8786 195.752 38.0116 195.752 39.1445V41.1329C195.752 42.2197 195.842 43.3295 195.999 44.3931L196.516 47.6532C196.606 48.2543 196.763 48.8324 196.966 49.4104L197.527 50.9827C197.842 51.8382 198.269 52.6012 198.831 53.2948L198.853 53.3179C199.775 54.4509 200.899 55.3757 202.157 56.0462L204.719 57.4104C205.483 57.8266 206.27 58.1734 207.079 58.4971L209.596 59.4451C211.147 60.0462 212.743 60.5549 214.361 60.9711L218.226 61.9653Z" fill="black"/>
<path d="M263.624 60.578L261.647 58.3583C259.826 56.3005 258.253 54.0346 256.972 51.5838C256.32 50.3352 255.758 49.0404 255.286 47.7225L253.848 43.5607C253.623 42.8901 253.444 42.2196 253.331 41.5028L253.309 41.4104C252.837 38.6358 252.545 35.815 252.455 32.9942C252.41 31.6531 252.477 30.3352 252.679 28.9942L252.859 27.6763C253.129 25.7341 253.646 23.815 254.343 21.9884L254.837 20.6936C254.972 20.3237 255.264 20.0231 255.624 19.8844C256.006 19.7225 256.388 19.63 256.792 19.5838L260.231 19.1907L266.973 18.7283C267.557 18.5664 268.119 18.3121 268.614 17.919L268.771 17.8034L282.705 7.3988L267.198 7.63002L262.209 7.95372C260.883 8.0462 259.579 8.18493 258.276 8.39302L252.837 9.24851L250.949 9.54909C250.252 9.6647 249.578 9.80343 248.904 10.0115L246.904 10.6127C246.364 10.7745 245.825 10.9595 245.308 11.1676L242.319 12.3468C241.689 12.6011 241.083 12.8786 240.476 13.1792L237.329 14.7976C236.723 15.0982 236.138 15.445 235.554 15.815L234.633 16.393C233.127 17.341 231.711 18.4277 230.385 19.63L228.632 21.2485C228.43 21.4335 228.227 21.6185 228.048 21.8265L227.733 22.1502C227.238 22.6589 226.811 23.237 226.452 23.8612C226.205 24.3005 226.07 24.8092 226.07 25.3179V25.8959C226.07 27.2832 226.25 28.6936 226.609 30.0346C226.699 30.3815 226.811 30.7052 226.924 31.0289L227.598 32.8323C228.362 34.8439 229.261 36.8092 230.295 38.7052L231.014 40.0231L237.756 32.6242L237.442 31.1676C237.352 30.7514 237.307 30.3121 237.307 29.8959C237.307 29.4104 237.374 28.9248 237.532 28.4624L237.554 28.3699C237.689 27.9768 237.869 27.6069 238.116 27.2832C238.318 27.0057 238.566 26.7514 238.835 26.5202C239.465 25.9884 240.139 25.5029 240.858 25.0867L242.409 24.1849C242.768 23.9768 243.128 23.815 243.51 23.6763L244.566 23.3063C244.836 23.2138 245.106 23.1676 245.375 23.1676C245.51 23.1676 245.6 23.3063 245.578 23.4219L243.622 30.9826L241.824 30.5202L241.352 34.3815C241.218 35.4913 241.15 36.6242 241.15 37.7572V39.7456C241.15 40.8323 241.24 41.9422 241.397 43.0057L241.914 46.2659C242.004 46.867 242.161 47.445 242.364 48.0231L242.926 49.5953C243.24 50.4508 243.667 51.2138 244.229 51.9075L244.252 51.9306C245.173 53.0635 246.297 53.9884 247.555 54.6589L250.117 56.0231C250.882 56.4393 251.668 56.7861 252.477 57.1098L254.994 58.0578C256.545 58.6589 258.141 59.1676 259.759 59.5838L263.624 60.578Z" fill="black"/>
<path d="M43.6003 54.7976L46.994 51.4681C47.7356 50.7514 48.4323 50.0115 49.0841 49.2254L55.1522 42.0809C55.6691 41.4566 56.186 40.8323 56.6804 40.1618L60.4561 35.1444L63.4227 30.7745C63.8498 30.1502 64.2318 29.4797 64.5914 28.8092L65.5129 27.052C65.7376 26.6127 65.8724 26.104 65.8724 25.5953C65.8724 25.2023 65.7376 24.8092 65.5129 24.4855L65.4005 24.3468C65.2656 24.1618 65.0858 23.9999 64.8836 23.9074L63.9846 23.445C63.8947 23.3988 63.8048 23.3525 63.6924 23.3294L62.7485 23.052C62.4339 22.9595 62.0968 22.9132 61.7596 22.9132H61.3551H60.2314L66.0747 14.5895L69.2211 13.8959L75.9634 12.5086L79.6268 11.8843C80.773 11.6762 81.9416 11.5375 83.1103 11.4681L83.9194 11.3988C84.3239 11.3757 84.706 11.3525 85.1105 11.3525H85.8746L85.6499 12.4392C85.5151 13.0866 85.3128 13.734 85.0431 14.3583C83.9643 16.971 82.6383 19.4681 81.0876 21.8265L78.9076 25.1329C78.4581 25.8034 78.0086 26.4739 77.5142 27.1213L74.615 30.9826L67.1984 40.6936L63.1081 45.5491C62.9957 45.6878 62.9283 45.8728 62.9283 46.0809C62.9283 46.1965 62.9733 46.289 63.0407 46.3583C63.1081 46.4277 63.2205 46.4739 63.3104 46.4739H63.6025C64.052 46.1733 64.5465 45.9653 65.0858 45.8959L65.4005 45.8496C65.6927 45.8034 66.0073 45.7803 66.3219 45.7572L69.8279 45.5953C70.637 45.5491 71.4461 45.5722 72.2552 45.6647L74.6599 45.8959C75.4016 45.9653 76.1432 45.9421 76.8849 45.8496H76.9523C77.222 45.8034 77.4917 45.734 77.7164 45.5953L78.1659 45.3641C78.503 45.2023 78.7053 44.8554 78.7053 44.4855V43.7918C78.7053 43.5838 78.6828 43.3757 78.6379 43.1676L78.3457 41.6878C78.2783 41.341 78.1884 40.9942 78.076 40.6705L76.6377 36.3005L85.4027 33.2947L87.9648 39.7687C88.212 40.393 88.4817 40.9942 88.7738 41.5953L90.1448 44.2774C90.7291 45.4335 91.3584 46.5895 92.0326 47.6994L93.9879 50.9595C94.7071 52.1387 95.4712 53.2947 96.2803 54.4277L98.2131 57.1098L95.9656 59.1907L88.7289 56.7629C86.6612 56.0693 84.5711 55.5606 82.4136 55.1907L73.9632 53.8034C71.4011 53.3872 68.8166 53.2716 66.2545 53.4335L63.153 53.6416L59.265 54.0809C57.8041 54.2427 56.3658 54.5202 54.9499 54.9132L53.6239 55.2601C52.4777 55.5606 51.354 55.9075 50.2528 56.3236L46.7468 57.5722L43.6003 54.7976Z" fill="black"/>
<path d="M88.3242 9.47974L90.1222 14.2659C90.4368 15.0751 90.7739 15.8844 91.1335 16.6936L92.0999 18.7514C92.8865 20.4393 93.8304 22.0347 94.9092 23.5144C95.1564 23.8612 95.4711 24.1849 95.8082 24.4624L96.0329 24.6474C96.2801 24.8555 96.6173 24.9248 96.9094 24.8092L98.7973 24.2081C99.1569 24.0925 99.5389 24.0925 99.8985 24.2312L100.281 24.3699C100.55 24.4624 100.798 24.6242 101 24.8323C101.382 25.2254 101.674 25.711 101.876 26.2427L103.18 30.0578C103.921 32.2081 104.775 34.3352 105.742 36.393L105.877 36.6705C106.776 38.5896 107.81 40.4162 109.001 42.1503C109.607 43.0289 110.372 43.7688 111.271 44.3237C111.855 44.6936 112.529 44.8786 113.203 44.8786H113.248C113.72 44.8786 114.17 44.7167 114.507 44.393L115.204 43.6069C117.339 41.2485 119.991 39.4682 122.935 38.4046C122.935 38.4046 123.384 39.1214 123.384 39.63V40.2543C123.384 41.0173 123.249 41.7572 123.002 42.474C122.373 44.2081 121.496 45.8728 120.418 47.3526L118.642 49.8266C117.923 50.8439 117.069 51.7456 116.125 52.5318L114.305 54.0809C113.923 54.4046 113.451 54.5664 112.956 54.5664H112.776C112.372 54.5664 111.99 54.3815 111.72 54.0578C111.405 53.6416 111.203 53.1329 111.136 52.6011C111.046 51.6069 111.023 50.5896 111.113 49.5953C111.181 48.9017 111.405 48.2543 111.765 47.6763L112.102 47.1676L107.158 49.2485L103.112 57.5722L96.5948 72.8323L93.4484 80L97.7185 78.6127L102.146 76.9479C103.697 76.3699 105.158 75.6069 106.551 74.6821C107.697 73.919 108.753 72.9711 109.652 71.9075L115.046 65.4335L128.081 48.1156C129.138 46.7283 130.037 45.2254 130.823 43.6531C130.958 43.3988 131.048 43.0982 131.093 42.8208L131.138 42.6127C131.205 42.289 131.205 41.9422 131.115 41.6185C130.891 40.7167 130.599 39.8381 130.194 39.0058L129.003 36.0693L131.925 34.682L134.172 30.5202L127.43 32.8323L126.621 31.1676C126.261 30.4277 125.991 29.6416 125.789 28.8555L125.744 28.6474C125.519 27.7688 125.519 26.8208 125.744 25.9422C125.811 25.6185 126.014 25.341 126.261 25.156C127.025 24.6011 127.924 24.2081 128.846 24.0231C129.542 23.8844 130.261 23.815 130.981 23.815C132.217 23.815 133.43 23.9537 134.621 24.2312L134.846 24.2774L134.981 23.4451C135.048 23.0982 134.959 22.7283 134.756 22.4277L132.441 19.1907C131.363 17.6878 129.924 16.5086 128.239 15.7919L126.98 15.2601C126.239 14.9595 125.474 14.6821 124.71 14.474L122.373 13.8497C121.856 13.7109 121.317 13.5953 120.8 13.5029C120.44 13.4335 120.058 13.4335 119.698 13.4797L119.294 13.5491C118.889 13.6185 118.507 13.7572 118.193 13.9884L117.766 14.2659C117.473 14.4508 117.226 14.7052 117.024 14.9826L116.799 15.2832C116.709 15.4219 116.619 15.5607 116.575 15.7225L116.372 16.3237C116.26 16.6705 116.215 17.0636 116.26 17.4335L116.507 19.6069C116.597 20.393 116.732 21.2023 116.912 21.9653L117.002 22.3815C117.361 23.9306 117.811 25.4566 118.395 26.9595L119.564 30.0578L121.586 34.9133L118.485 35.9075C118.148 36.0231 117.833 36.0925 117.473 36.1156L116.305 36.2312C115.923 36.2774 115.541 36.2543 115.159 36.1849L114.395 36.0693C113.81 35.9075 113.271 35.6069 112.844 35.1676C112.529 34.8439 112.304 34.474 112.147 34.0578L111.54 32.4393C111.36 31.9306 111.203 31.4451 111.068 30.9133C111.046 30.8208 111.023 30.7052 111.023 30.6127V30.1734C111.023 29.6647 111.203 29.156 111.495 28.763C111.765 28.4162 112.102 28.0925 112.439 27.815L112.799 27.5375L111.922 23.815C111.45 21.8266 110.821 19.9075 110.012 18.0578L109.45 16.6474L109.068 15.6994C108.888 15.2601 108.596 14.867 108.214 14.5664L107.293 13.8497C106.506 13.2485 105.629 12.7399 104.731 12.3699L103 11.6531C102.079 11.2832 101.112 10.9826 100.146 10.7745L97.8758 10.289C96.7746 10.0578 95.6509 9.8728 94.5272 9.78031L92.3696 9.59534C91.4931 9.52598 90.6166 9.47974 89.7401 9.47974H88.3242Z" fill="black"/>
</svg>

