<svg width="30" height="30" viewBox="0 0 30 30" fill="none" xmlns="http://www.w3.org/2000/svg">
<path d="M28.2589 28.2422H25.9401V0.878906C25.9401 0.393516 25.5466 0 25.0612 0H4.93879C4.4534 0 4.05988 0.393516 4.05988 0.878906V28.2422H1.74121C1.25582 28.2422 0.862305 28.6357 0.862305 29.1211C0.862305 29.6065 1.25582 30 1.74121 30H28.2589C28.7443 30 29.1378 29.6065 29.1378 29.1211C29.1378 28.6357 28.7443 28.2422 28.2589 28.2422ZM12.0041 28.2422V22.2503H17.9959V28.2422H12.0041ZM19.7537 28.2422V21.3714C19.7537 20.886 19.3602 20.4925 18.8748 20.4925H11.1252C10.6398 20.4925 10.2463 20.886 10.2463 21.3714V28.2422H5.8177V1.75781H24.1823V28.2422H19.7537Z" fill="white"/>
<path d="M13.1103 3.88574H8.80322C8.31783 3.88574 7.92432 4.27926 7.92432 4.76465V9.07176C7.92432 9.55716 8.31783 9.95067 8.80322 9.95067H13.1103C13.5957 9.95067 13.9892 9.55716 13.9892 9.07176V4.76465C13.9892 4.27926 13.5957 3.88574 13.1103 3.88574ZM12.2314 8.19286H9.68213V5.64356H12.2314V8.19286Z" fill="white"/>
<path d="M21.1968 3.88574H16.8896C16.4043 3.88574 16.0107 4.27926 16.0107 4.76465V9.07176C16.0107 9.55716 16.4043 9.95067 16.8896 9.95067H21.1968C21.6821 9.95067 22.0757 9.55716 22.0757 9.07176V4.76465C22.0757 4.27926 21.6821 3.88574 21.1968 3.88574ZM20.3179 8.19286H17.7686V5.64356H20.3179V8.19286Z" fill="white"/>
<path d="M13.1103 12.0674H8.80322C8.31783 12.0674 7.92432 12.4609 7.92432 12.9463V17.2534C7.92432 17.7388 8.31783 18.1323 8.80322 18.1323H13.1103C13.5957 18.1323 13.9892 17.7388 13.9892 17.2534V12.9463C13.9892 12.4609 13.5957 12.0674 13.1103 12.0674ZM12.2314 16.3745H9.68213V13.8252H12.2314V16.3745Z" fill="white"/>
<path d="M21.1968 12.0674H16.8896C16.4043 12.0674 16.0107 12.4609 16.0107 12.9463V17.2534C16.0107 17.7388 16.4043 18.1323 16.8896 18.1323H21.1968C21.6821 18.1323 22.0757 17.7388 22.0757 17.2534V12.9463C22.0757 12.4609 21.6821 12.0674 21.1968 12.0674ZM20.3179 16.3745H17.7686V13.8252H20.3179V16.3745Z" fill="white"/>
</svg>
