<svg width="30" height="30" viewBox="0 0 30 30" fill="none" xmlns="http://www.w3.org/2000/svg">
<path d="M20.3446 17.6484L16.1617 14.5113V8.1209C16.1617 7.47836 15.6423 6.95898 14.9998 6.95898C14.3573 6.95898 13.8379 7.47836 13.8379 8.1209V15.0923C13.8379 15.4582 14.0099 15.8034 14.3027 16.0218L18.9502 19.5075C19.1593 19.6643 19.4034 19.7399 19.6462 19.7399C20.0006 19.7399 20.3491 19.5807 20.5769 19.2739C20.9627 18.7615 20.8581 18.033 20.3446 17.6484Z" fill="white"/>
<path d="M15 0C6.7285 0 0 6.7285 0 15C0 23.2715 6.7285 30 15 30C23.2715 30 30 23.2715 30 15C30 6.7285 23.2715 0 15 0ZM15 27.6762C8.01123 27.6762 2.32377 21.9888 2.32377 15C2.32377 8.01123 8.01123 2.32377 15 2.32377C21.9899 2.32377 27.6762 8.01123 27.6762 15C27.6762 21.9888 21.9888 27.6762 15 27.6762Z" fill="white"/>
</svg>
