<svg width="283" height="80" viewBox="0 0 283 80" fill="none" xmlns="http://www.w3.org/2000/svg">
<path d="M52.8698 23.3526L48.0553 22.5434C45.7155 22.1503 43.3533 21.9653 40.991 21.9653H40.496H37.0314C36.199 21.9653 35.3665 22.0347 34.5341 22.1503L33.1168 22.3584C32.7793 22.4047 32.4643 22.474 32.1269 22.5434L31.182 22.7515C30.7995 22.844 30.417 22.9596 30.0346 23.0752L29.0222 23.422C28.7297 23.5145 28.4147 23.6301 28.1222 23.7688L27.4473 24.0463L27.0649 24.2081C26.5699 24.4162 26.0974 24.6474 25.6475 24.9249L25.4225 25.0636C25.2875 25.1561 25.13 25.2486 24.9951 25.3642L24.8826 25.4567C24.5001 25.7573 24.1176 26.0809 23.7802 26.4509L23.6902 26.5434C23.6452 26.5896 23.6002 26.6359 23.5777 26.6821C23.3077 27.0983 23.1277 27.5376 23.0153 28C22.9928 28.1388 22.9928 28.2775 23.0377 28.4162C23.1502 28.7399 23.3302 29.0174 23.5777 29.2255L24.1626 29.711C24.2526 29.7804 24.3651 29.8497 24.4776 29.9191L24.6351 30.0116C24.7026 30.0578 24.7926 30.081 24.8826 30.1041L25.22 30.2197C25.355 30.2659 25.5125 30.3122 25.67 30.3353H25.6925C26.7274 30.474 27.7848 30.474 28.8197 30.3353L29.0672 30.3122L33.9717 29.3411C34.6016 29.2255 35.2091 29.0636 35.8165 28.8555L39.8661 27.5376L42.7908 26.844L44.8381 26.5434C45.5805 26.4278 46.323 26.4278 47.0654 26.4971L52.8698 27.052V28.9711C52.8698 29.3873 52.8248 29.8035 52.7123 30.1966C52.6673 30.4046 52.5774 30.6127 52.4874 30.7977L51.9699 31.9075C51.2275 33.2948 50.3501 34.6127 49.4052 35.8382C49.1802 36.1388 48.9102 36.4393 48.6627 36.6937L46.3455 39.0752L44.7706 40.6937L39.2812 46.9364C38.7412 47.5607 38.1788 48.1619 37.5713 48.7399L31.4969 54.7977L27.1098 56.0925C26.8849 56.1619 26.6824 56.2312 26.4574 56.3237L24.8826 56.948C24.1851 57.2255 23.5102 57.526 22.8578 57.896L20.9005 58.9596C20.3155 59.2833 19.7531 59.6763 19.2581 60.1388C18.2682 61.0636 17.4583 62.1503 16.8733 63.3757L16.4234 65.2255L5.39947 69.3873L0 72.1619L12.1488 57.133L22.7228 44.185L28.7972 37.2486L32.6218 35.8613L32.1494 36.9711C32.0144 37.2948 31.9019 37.6416 31.7894 37.9885L31.5869 38.7283C31.5194 38.9596 31.4969 39.2139 31.4969 39.4451V39.7226C31.4969 40.0694 31.5644 40.3931 31.7219 40.6937C31.8794 40.9942 32.1044 41.2486 32.3968 41.3873L32.5543 41.4798C32.7343 41.5723 32.9593 41.6185 33.1618 41.6185H33.4317C33.6342 41.6185 33.8367 41.5723 34.0167 41.4567L35.3215 40.6937L38.7187 37.9422C39.3037 37.4798 39.8661 36.9711 40.3836 36.4162L42.5658 34.1734C43.1283 33.5954 43.6457 32.948 44.0957 32.2544C44.2532 32.0231 44.3207 31.7688 44.3207 31.4914C44.3207 31.1677 44.1632 30.8902 43.9157 30.7052L43.7807 30.6127C43.6907 30.5434 43.5782 30.4971 43.4658 30.474C42.8358 30.3353 42.1834 30.3815 41.5759 30.5434L39.3711 31.2139L31.2719 33.7572L28.0773 35.0058C27.0649 35.3989 26.03 35.7457 24.9726 36.0463L23.0377 36.6012C22.6778 36.6937 22.3178 36.7861 21.9579 36.8324C21.1254 36.948 20.293 36.948 19.4381 36.8555L19.1231 36.8324C18.6732 36.7861 18.2232 36.6937 17.7733 36.5781L16.8059 36.3006C16.2434 36.1388 15.7035 35.9307 15.1635 35.6763L13.9936 35.1214C13.0712 34.6821 12.1713 34.1272 11.3614 33.4798L8.77414 31.4451L6.18689 28.7862C5.37697 27.9538 4.58955 27.052 3.86962 26.1272L2.96971 24.9711C2.49726 24.37 2.0698 23.6994 1.70983 23.0289L1.12489 21.9653L2.85722 23.7457C3.35217 24.2544 3.86962 24.6937 4.43207 25.1099C5.35448 25.7804 6.36688 26.3353 7.40178 26.7977L7.71675 26.9364C8.25669 27.1677 8.81914 27.3295 9.38158 27.422L9.53907 27.4451C9.76405 27.4914 9.98902 27.4914 10.214 27.4914H10.9789C11.4514 27.4914 11.9013 27.3989 12.3513 27.237L13.4987 26.7977L13.5212 26.7746C14.7136 24.948 16.0409 23.2139 17.4808 21.6185C17.9757 21.0636 18.5157 20.5781 19.1006 20.1388C21.1929 18.5665 23.4877 17.2717 25.8725 16.2544L26.9749 15.7919C28.1897 15.2833 29.4271 14.844 30.7095 14.5203L31.9694 14.1966C32.8693 13.9653 33.7692 13.8035 34.6916 13.6879L36.9189 13.4336C37.2114 13.4104 37.5263 13.3642 37.8188 13.3642L41.6434 13.1561L40.5185 11.0752L48.3928 7.14453L49.6301 10.1734C50.0126 11.0983 50.3501 12.0231 50.6425 12.948L51.6325 16C51.7224 16.2544 51.7899 16.5087 51.8574 16.763L52.3749 18.8671C52.5774 19.6763 52.6898 20.4856 52.7573 21.3179L52.8698 23.3526Z" fill="white"/>
<path d="M178.318 61.2948L177.418 59.9769C176.113 58.0809 174.943 56.0925 173.863 54.0578C171.951 50.4046 170.263 46.6127 168.869 42.7283L168.059 40.4624L166.911 37.711C166.776 37.4104 166.844 37.0636 167.069 36.8324L167.159 36.7399H172.108L176.608 31.8844H165.809C165.516 30.7977 165.314 29.711 165.246 28.578L165.134 27.052L165.066 26.0116C164.954 24.0925 164.999 22.1734 165.224 20.2775L165.494 17.7572C165.696 15.9538 166.034 14.1734 166.529 12.4393L167.136 10.289C167.744 8.09249 168.531 5.91908 169.476 3.83815L171.208 0L164.459 2.54335L160.522 4.25433C160.297 4.34682 160.117 4.48555 159.937 4.6474C159.802 4.78613 159.689 4.92486 159.599 5.08671C159.239 5.68786 158.947 6.33526 158.722 7.00578L158.047 8.9711C157.98 9.13294 157.822 9.24855 157.665 9.22543L153.413 8.80925C153.3 8.78613 153.165 8.78613 153.053 8.78613C152.873 8.78613 152.715 8.85549 152.603 8.9711L152.58 8.99422C152.13 9.45665 151.68 9.96531 151.253 10.474C150.015 11.9538 148.913 13.5491 147.946 15.237L147.271 16.4162C146.753 17.341 146.236 18.2659 145.763 19.2139L144.953 20.8324C143.716 23.2832 142.659 25.8035 141.759 28.3931L141.736 28.4393L140.836 31.4451L138.136 31.6763L137.574 32.948C137.192 33.8035 136.922 34.7052 136.787 35.6069L139.509 35.3988C139.644 35.3988 139.756 35.4682 139.801 35.5838L139.869 35.7457C139.914 35.815 139.936 35.9075 139.936 36C139.936 36.3699 139.914 36.7399 139.869 37.1098L139.486 40L139.261 42.3121L139.149 43.6763C139.081 44.6243 139.036 45.5491 139.036 46.4971C139.036 47.5607 139.104 48.6243 139.261 49.6647L139.486 51.3295L139.711 52.2543L143.536 49.2486L147.361 46.2428C147.361 43.7688 147.541 41.3179 147.878 38.8902L148.036 37.6879L148.485 36.0694H148.71L156.585 36.3006C156.877 36.763 157.08 37.2717 157.147 37.8266L157.485 40L157.89 42.1734C158.362 44.7168 158.992 47.2601 159.734 49.7341L160.499 52.2312C160.747 53.0173 161.017 53.7803 161.309 54.5665C161.917 56.1156 162.659 57.5954 163.559 58.9595C164.301 59.7225 165.156 60.3699 166.079 60.8786L167.091 61.4335C167.744 61.7803 168.396 62.104 169.071 62.3584L183.357 67.9769L182.3 66.659C180.905 64.9249 179.577 63.1214 178.318 61.2948ZM155.685 32.3468L153.008 32.185C152.4 32.1387 151.77 32.0925 151.163 31.9769L149.16 31.6763C149.768 29.6647 150.51 27.7225 151.433 25.8497L152.04 24.6012C152.535 23.6069 153.053 22.6358 153.637 21.6879L154.087 20.9249C154.717 19.9075 155.392 18.9364 156.135 18.0116C156.27 18.1503 156.36 18.3584 156.36 18.5665V21.5029L156.27 22.7977C156.18 24.2312 156.135 25.6879 156.135 27.1214V27.6763C156.135 29.0867 156.292 30.4971 156.585 31.8844L156.45 32.0231C156.247 32.2543 155.977 32.3699 155.685 32.3468Z" fill="white"/>
<path d="M218.454 61.9653L216.474 59.7457C214.652 57.6879 213.077 55.422 211.795 52.9711C211.142 51.7225 210.58 50.4277 210.107 49.1098L208.667 44.948C208.442 44.2775 208.262 43.6069 208.15 42.8902L208.127 42.7977C207.655 40.0231 207.363 37.2023 207.273 34.3815C207.228 33.0405 207.295 31.7225 207.498 30.3815L207.677 29.0636C207.947 27.1214 208.465 25.2023 209.162 23.3757L209.657 22.0809C209.792 21.711 210.085 21.4104 210.445 21.2717C210.827 21.1098 211.21 21.0173 211.615 20.9711L215.057 20.578L221.806 20.1156C222.391 19.9538 222.954 19.6994 223.448 19.3064L223.606 19.1908L237.555 8.78613L222.031 9.01735L217.037 9.34104C215.709 9.43353 214.404 9.57226 213.099 9.78035L207.655 10.6358L205.765 10.9364C205.068 11.052 204.393 11.1908 203.718 11.3988L201.716 12C201.176 12.1619 200.636 12.3468 200.118 12.5549L197.126 13.7341C196.496 13.9884 195.889 14.2659 195.281 14.5665L192.132 16.185C191.524 16.4856 190.939 16.8324 190.354 17.2023L189.432 17.7804C187.924 18.7283 186.507 19.815 185.18 21.0173L183.425 22.6358C183.222 22.8208 183.02 23.0058 182.84 23.2139L182.525 23.5376C182.03 24.0462 181.603 24.6243 181.243 25.2486C180.995 25.6879 180.86 26.1965 180.86 26.7052V27.2832C180.86 28.6705 181.04 30.0809 181.4 31.422C181.49 31.7688 181.603 32.0925 181.715 32.4162L182.39 34.2197C183.155 36.2312 184.055 38.1965 185.09 40.0925L185.81 41.4104L192.559 34.0116L192.244 32.5549C192.154 32.1387 192.109 31.6994 192.109 31.2832C192.109 30.7977 192.177 30.3121 192.334 29.8497L192.356 29.7572C192.491 29.3642 192.671 28.9942 192.919 28.6705C193.121 28.3931 193.369 28.1387 193.639 27.9075C194.269 27.3757 194.944 26.8902 195.664 26.474L197.216 25.5723C197.576 25.3642 197.936 25.2023 198.318 25.0636L199.376 24.6936C199.646 24.6012 199.916 24.5549 200.186 24.5549C200.321 24.5549 200.411 24.6936 200.388 24.8092L198.431 32.3699L196.631 31.9075L196.159 35.7688C196.024 36.8786 195.956 38.0116 195.956 39.1445V41.1329C195.956 42.2197 196.046 43.3295 196.204 44.3931L196.721 47.6532C196.811 48.2543 196.969 48.8324 197.171 49.4104L197.733 50.9827C198.048 51.8382 198.476 52.6012 199.038 53.2948L199.061 53.3179C199.983 54.4509 201.108 55.3757 202.368 56.0462L204.933 57.4104C205.698 57.8266 206.485 58.1734 207.295 58.4971L209.815 59.4451C211.367 60.0462 212.964 60.5549 214.584 60.9711L218.454 61.9653Z" fill="white"/>
<path d="M263.899 60.5781L261.92 58.3585C260.097 56.3007 258.523 54.0348 257.24 51.5839C256.588 50.3353 256.025 49.0405 255.553 47.7226L254.113 43.5608C253.888 42.8903 253.708 42.2197 253.595 41.503L253.573 41.4105C253.101 38.6359 252.808 35.8151 252.718 32.9943C252.673 31.6533 252.741 30.3353 252.943 28.9943L253.123 27.6764C253.393 25.7342 253.91 23.8151 254.608 21.9885L255.103 20.6937C255.238 20.3238 255.53 20.0232 255.89 19.8845C256.273 19.7226 256.655 19.6301 257.06 19.5839L260.502 19.1908L267.252 18.7284C267.837 18.5666 268.399 18.3122 268.894 17.9192L269.051 17.8036L283 7.39893L267.477 7.63014L262.482 7.95384C261.155 8.04632 259.85 8.18505 258.545 8.39314L253.101 9.24864L251.211 9.54921C250.513 9.66482 249.838 9.80355 249.163 10.0116L247.161 10.6128C246.621 10.7746 246.081 10.9596 245.564 11.1677L242.572 12.3469C241.942 12.6012 241.334 12.8787 240.727 13.1793L237.577 14.7978C236.97 15.0983 236.385 15.4452 235.8 15.8151L234.877 16.3931C233.37 17.3411 231.953 18.4278 230.625 19.6301L228.87 21.2486C228.668 21.4336 228.465 21.6186 228.285 21.8267L227.971 22.1504C227.476 22.659 227.048 23.2371 226.688 23.8614C226.441 24.3007 226.306 24.8093 226.306 25.318V25.896C226.306 27.2833 226.486 28.6937 226.846 30.0348C226.936 30.3816 227.048 30.7053 227.161 31.029L227.835 32.8325C228.6 34.844 229.5 36.8093 230.535 38.7053L231.255 40.0232L238.005 32.6244L237.69 31.1677C237.6 30.7515 237.555 30.3122 237.555 29.896C237.555 29.4105 237.622 28.9249 237.78 28.4625L237.802 28.37C237.937 27.977 238.117 27.607 238.364 27.2833C238.567 27.0059 238.814 26.7515 239.084 26.5203C239.714 25.9885 240.389 25.503 241.109 25.0868L242.662 24.1851C243.022 23.977 243.381 23.8151 243.764 23.6764L244.821 23.3064C245.091 23.214 245.361 23.1677 245.631 23.1677C245.766 23.1677 245.856 23.3064 245.834 23.422L243.876 30.9827L242.077 30.5203L241.604 34.3816C241.469 35.4914 241.402 36.6244 241.402 37.7573V39.7457C241.402 40.8325 241.492 41.9423 241.649 43.0059L242.167 46.266C242.257 46.8671 242.414 47.4452 242.617 48.0232L243.179 49.5955C243.494 50.451 243.921 51.214 244.484 51.9076L244.506 51.9307C245.429 53.0637 246.554 53.9885 247.814 54.659L250.378 56.0232C251.143 56.4394 251.931 56.7862 252.741 57.1099L255.26 58.0579C256.813 58.659 258.41 59.1677 260.03 59.5839L263.899 60.5781Z" fill="white"/>
<path d="M43.6458 54.7976L47.0429 51.4682C47.7854 50.7514 48.4828 50.0115 49.1352 49.2254L55.2096 42.0809C55.7271 41.4566 56.2445 40.8323 56.7395 40.1618L60.5191 35.1444L63.4888 30.7745C63.9163 30.1502 64.2987 29.4797 64.6587 28.8092L65.5811 27.052C65.8061 26.6127 65.9411 26.104 65.9411 25.5953C65.9411 25.2023 65.8061 24.8092 65.5811 24.4855L65.4686 24.3468C65.3336 24.1618 65.1537 23.9999 64.9512 23.9075L64.0513 23.445C63.9613 23.3988 63.8713 23.3525 63.7588 23.3294L62.8139 23.052C62.4989 22.9595 62.1614 22.9132 61.824 22.9132H61.419H60.2941L66.1436 14.5895L69.2933 13.8959L76.0426 12.5086L79.7097 11.8843C80.8571 11.6762 82.027 11.5375 83.1969 11.4681L84.0068 11.3988C84.4118 11.3757 84.7943 11.3525 85.1992 11.3525H85.9641L85.7392 12.4392C85.6042 13.0866 85.4017 13.734 85.1317 14.3583C84.0518 16.971 82.7244 19.4681 81.1721 21.8265L78.9898 25.1329C78.5399 25.8034 78.0899 26.4739 77.5949 27.1213L74.6927 30.9826L67.2685 40.6936L63.1738 45.5491C63.0614 45.6878 62.9939 45.8728 62.9939 46.0809C62.9939 46.1965 63.0389 46.289 63.1064 46.3583C63.1739 46.4277 63.2863 46.4739 63.3763 46.4739H63.6688C64.1188 46.1734 64.6137 45.9653 65.1537 45.8959L65.4686 45.8496C65.7611 45.8034 66.0761 45.7803 66.391 45.7572L69.9007 45.5953C70.7106 45.5491 71.5205 45.5722 72.3305 45.6647L74.7377 45.8959C75.4802 45.9653 76.2226 45.9421 76.965 45.8496H77.0325C77.3025 45.8034 77.5724 45.734 77.7974 45.5953L78.2474 45.3641C78.5849 45.2023 78.7873 44.8554 78.7873 44.4855V43.7918C78.7873 43.5838 78.7648 43.3757 78.7198 43.1676L78.4274 41.6878C78.3599 41.341 78.2699 40.9942 78.1574 40.6705L76.7175 36.3005L85.4917 33.2947L88.0564 39.7687C88.3039 40.393 88.5739 40.9942 88.8664 41.5953L90.2387 44.2774C90.8237 45.4335 91.4536 46.5895 92.1285 47.6994L94.0858 50.9595C94.8058 52.1387 95.5707 53.2947 96.3806 54.4277L98.3154 57.1098L96.0657 59.1907L88.8214 56.7629C86.7516 56.0693 84.6593 55.5606 82.4995 55.1907L74.0403 53.8034C71.4755 53.3872 68.8883 53.2716 66.3235 53.4335L63.2188 53.6416L59.3267 54.0809C57.8644 54.2427 56.4245 54.5202 55.0071 54.9132L53.6798 55.2601C52.5324 55.5606 51.4075 55.9075 50.3051 56.3236L46.7954 57.5722L43.6458 54.7976Z" fill="white"/>
<path d="M88.4163 9.47974L90.2161 14.2659C90.5311 15.0751 90.8685 15.8844 91.2285 16.6936L92.1959 18.7514C92.9833 20.4393 93.9282 22.0347 95.0081 23.5144C95.2556 23.8612 95.5706 24.1849 95.908 24.4624L96.133 24.6474C96.3805 24.8555 96.718 24.9248 97.0104 24.8092L98.9002 24.2081C99.2602 24.0925 99.6427 24.0924 100.003 24.2312L100.385 24.3699C100.655 24.4624 100.903 24.6242 101.105 24.8323C101.487 25.2254 101.78 25.7109 101.982 26.2427L103.287 30.0578C104.03 32.2081 104.885 34.3352 105.852 36.393L105.987 36.6705C106.887 38.5896 107.922 40.4161 109.114 42.1503C109.722 43.0289 110.487 43.7688 111.387 44.3237C111.971 44.6936 112.646 44.8786 113.321 44.8786H113.366C113.839 44.8786 114.289 44.7167 114.626 44.393L115.324 43.6069C117.461 41.2485 120.116 39.4682 123.063 38.4046C123.063 38.4046 123.513 39.1214 123.513 39.63V40.2543C123.513 41.0173 123.378 41.7572 123.13 42.474C122.5 44.2081 121.623 45.8728 120.543 47.3526L118.766 49.8266C118.046 50.8439 117.191 51.7456 116.246 52.5318L114.424 54.0809C114.041 54.4046 113.569 54.5664 113.074 54.5664H112.894C112.489 54.5664 112.106 54.3815 111.836 54.0578C111.522 53.6416 111.319 53.1329 111.252 52.6011C111.162 51.6069 111.139 50.5896 111.229 49.5953C111.297 48.9017 111.522 48.2543 111.881 47.6763L112.219 47.1676L107.269 49.2485L103.22 57.5722L96.6955 72.8323L93.5458 80L97.8203 78.6127L102.252 76.9479C103.805 76.3699 105.267 75.6069 106.662 74.682C107.809 73.919 108.867 72.9711 109.767 71.9075L115.166 65.4335L128.215 48.1156C129.272 46.7283 130.172 45.2254 130.96 43.6531C131.095 43.3988 131.185 43.0982 131.23 42.8208L131.275 42.6127C131.342 42.289 131.342 41.9422 131.252 41.6185C131.027 40.7167 130.735 39.8381 130.33 39.0057L129.137 36.0693L132.062 34.682L134.312 30.5202L127.562 32.8323L126.753 31.1676C126.393 30.4277 126.123 29.6416 125.92 28.8555L125.875 28.6474C125.65 27.7688 125.65 26.8208 125.875 25.9422C125.943 25.6185 126.145 25.341 126.393 25.156C127.158 24.6011 128.057 24.2081 128.98 24.0231C129.677 23.8844 130.397 23.815 131.117 23.815C132.355 23.815 133.569 23.9537 134.762 24.2312L134.987 24.2774L135.122 23.4451C135.189 23.0982 135.099 22.7283 134.897 22.4277L132.579 19.1907C131.5 17.6878 130.06 16.5086 128.372 15.7919L127.113 15.2601C126.37 14.9595 125.605 14.682 124.84 14.474L122.5 13.8497C121.983 13.7109 121.443 13.5953 120.926 13.5029C120.566 13.4335 120.183 13.4335 119.823 13.4797L119.418 13.5491C119.013 13.6185 118.631 13.7572 118.316 13.9884L117.888 14.2659C117.596 14.4508 117.348 14.7052 117.146 14.9826L116.921 15.2832C116.831 15.4219 116.741 15.5607 116.696 15.7225L116.494 16.3237C116.381 16.6705 116.336 17.0635 116.381 17.4335L116.629 19.6069C116.719 20.393 116.854 21.2023 117.033 21.9653L117.123 22.3815C117.483 23.9306 117.933 25.4566 118.518 26.9595L119.688 30.0578L121.713 34.9133L118.608 35.9075C118.271 36.0231 117.956 36.0925 117.596 36.1156L116.426 36.2312C116.044 36.2774 115.661 36.2543 115.279 36.1849L114.514 36.0693C113.929 35.9075 113.389 35.6069 112.961 35.1676C112.646 34.8439 112.421 34.474 112.264 34.0578L111.657 32.4393C111.477 31.9306 111.319 31.4451 111.184 30.9133C111.162 30.8208 111.139 30.7052 111.139 30.6127V30.1734C111.139 29.6647 111.319 29.156 111.612 28.763C111.881 28.4161 112.219 28.0924 112.556 27.815L112.916 27.5375L112.039 23.815C111.567 21.8266 110.937 19.9075 110.127 18.0578L109.564 16.6474L109.182 15.6994C109.002 15.2601 108.709 14.867 108.327 14.5664L107.404 13.8497C106.617 13.2485 105.74 12.7399 104.84 12.3699L103.107 11.6531C102.185 11.2832 101.218 10.9826 100.25 10.7745L97.9778 10.289C96.8754 10.0578 95.7506 9.8728 94.6257 9.78031L92.4659 9.59534C91.5885 9.52598 90.711 9.47974 89.8336 9.47974H88.4163V9.47974Z" fill="white"/>
</svg>
