<svg width="30" height="30" viewBox="0 0 30 30" fill="none" xmlns="http://www.w3.org/2000/svg">
<path d="M27.3633 4.72266H2.63672C1.18283 4.72266 0 5.90549 0 7.35937V22.6396C0 24.0935 1.18283 25.2763 2.63672 25.2763H27.3633C28.8172 25.2763 30 24.0935 30 22.6396V7.35937C30 5.90549 28.8172 4.72266 27.3633 4.72266ZM27.0192 6.48047L26.6672 6.7735L16.0461 15.6177C15.4399 16.1224 14.56 16.1224 13.9539 15.6177L3.33275 6.7735L2.98084 6.48047H27.0192ZM1.75781 7.74949L10.4116 14.9555L1.75781 20.7149V7.74949ZM27.3633 23.5185H2.63672C2.21203 23.5185 1.85684 23.2157 1.77545 22.8147L11.8211 16.1291L12.8291 16.9685C13.458 17.4922 14.2291 17.7541 15.0001 17.7541C15.771 17.7541 16.542 17.4922 17.171 16.9685L18.1791 16.1291L28.2246 22.8146C28.1432 23.2157 27.788 23.5185 27.3633 23.5185ZM28.2422 20.7149L19.5884 14.9556L28.2422 7.74949V20.7149Z" fill="white"/>
</svg>
