<svg width="35" height="35" viewBox="0 0 35 35" fill="none" xmlns="http://www.w3.org/2000/svg">
<g clip-path="url(#clip0)">
<path d="M32.6794 33.8496L30.0193 8.5174C29.9635 7.98708 29.5165 7.5844 28.9832 7.5844H23.9834V6.44446C23.9834 2.89112 21.0923 0 17.5389 0C13.9853 0 11.0942 2.89112 11.0942 6.44446V7.5844H6.09438C5.56112 7.5844 5.11412 7.98708 5.05831 8.5174L2.39817 33.8496C2.36746 34.143 2.46279 34.436 2.66013 34.6555C2.85773 34.8747 3.13918 34.9999 3.43424 34.9999H31.6431C31.9384 34.9999 32.2199 34.8747 32.4172 34.6555C32.6151 34.436 32.7101 34.143 32.6794 33.8496ZM13.1776 6.44446C13.1776 4.03987 15.1341 2.08335 17.5389 2.08335C19.9435 2.08335 21.9 4.03987 21.9 6.44446V7.5844H13.1776V6.44446ZM4.59101 32.9166L7.03245 9.66776H11.0942V11.9634C11.0942 12.5386 11.5607 13.0051 12.1359 13.0051C12.7111 13.0051 13.1776 12.5386 13.1776 11.9634V9.66776H21.9V11.9634C21.9 12.5386 22.3665 13.0051 22.9417 13.0051C23.5169 13.0051 23.9834 12.5386 23.9834 11.9634V9.66776H28.0452L30.4866 32.9166H4.59101Z" fill="black"/>
</g>
<defs>
<clipPath id="clip0">
<rect width="35" height="35" fill="white"/>
</clipPath>
</defs>
</svg>
