<svg width="30" height="30" viewBox="0 0 30 30" fill="none" xmlns="http://www.w3.org/2000/svg">
<g clip-path="url(#clip0)">
<path d="M29.2286 22.127L25.4991 18.3975C24.4709 17.3694 22.7978 17.3694 21.7697 18.3975L20.0745 20.0927C19.2955 20.8717 18.028 20.8714 17.2494 20.093L9.90172 12.7391C9.12096 11.9583 9.12084 10.6946 9.90172 9.91373C10.1748 9.64069 10.9588 8.85664 11.5969 8.21855C12.6206 7.19492 12.6349 5.52704 11.5959 4.48817L7.86746 0.771447C6.83925 -0.2567 5.16622 -0.256699 4.14077 0.768752C3.37343 1.52942 3.12593 1.77481 2.78186 2.11588C-0.925956 5.82365 -0.925956 11.8566 2.78169 15.5643L14.4238 27.2125C18.1403 30.9291 24.1556 30.9294 27.8723 27.2125L29.2286 25.8564C30.2568 24.8282 30.2568 23.1552 29.2286 22.127ZM5.3812 2.01458C5.72392 1.67186 6.2815 1.6718 6.62533 2.01551L10.3538 5.73224C10.6973 6.07578 10.6973 6.63177 10.3538 6.97537L9.73215 7.59693L4.7628 2.62758L5.3812 2.01458ZM15.6672 25.9696L4.02499 14.3212C1.15635 11.4526 0.998676 6.94818 3.54007 3.89116L8.495 8.8461C7.19304 10.322 7.2473 12.571 8.6583 13.982L16.0057 21.3356C16.0058 21.3357 16.0059 21.3358 16.006 21.3358C17.4154 22.7454 19.6643 22.8032 21.1421 21.4994L26.0971 26.4545C23.0498 28.9915 18.5556 28.858 15.6672 25.9696ZM27.9855 24.6132L27.3639 25.2349L22.3913 20.2622L23.0128 19.6407C23.3556 19.298 23.9132 19.2979 24.256 19.6407L27.9854 23.3701C28.3282 23.7129 28.3282 24.2706 27.9855 24.6132Z" fill="white"/>
</g>
<defs>
<clipPath id="clip0">
<rect width="30" height="30" fill="white"/>
</clipPath>
</defs>
</svg>
