<svg width="139" height="43" viewBox="0 0 139 43" fill="none" xmlns="http://www.w3.org/2000/svg">
<path d="M33.1 32.4V39H6.65V33.75L20.15 21C21.5833 19.6333 22.55 18.4667 23.05 17.5C23.55 16.5 23.8 15.5167 23.8 14.55C23.8 13.15 23.3167 12.0833 22.35 11.35C21.4167 10.5833 20.0333 10.2 18.2 10.2C16.6667 10.2 15.2833 10.5 14.05 11.1C12.8167 11.6667 11.7833 12.5333 10.95 13.7L5.05 9.9C6.41667 7.86667 8.3 6.28333 10.7 5.15C13.1 3.98333 15.85 3.4 18.95 3.4C21.55 3.4 23.8167 3.83333 25.75 4.7C27.7167 5.53333 29.2333 6.73333 30.3 8.3C31.4 9.83333 31.95 11.65 31.95 13.75C31.95 15.65 31.55 17.4333 30.75 19.1C29.95 20.7667 28.4 22.6667 26.1 24.8L18.05 32.4H33.1ZM58.8445 39.6C55.9445 39.6 53.3612 38.8833 51.0945 37.45C48.8279 36.0167 47.0445 33.95 45.7445 31.25C44.4779 28.5167 43.8445 25.2667 43.8445 21.5C43.8445 17.7333 44.4779 14.5 45.7445 11.8C47.0445 9.06666 48.8279 6.98333 51.0945 5.55C53.3612 4.11667 55.9445 3.4 58.8445 3.4C61.7445 3.4 64.3279 4.11667 66.5945 5.55C68.8612 6.98333 70.6279 9.06666 71.8945 11.8C73.1945 14.5 73.8445 17.7333 73.8445 21.5C73.8445 25.2667 73.1945 28.5167 71.8945 31.25C70.6279 33.95 68.8612 36.0167 66.5945 37.45C64.3279 38.8833 61.7445 39.6 58.8445 39.6ZM58.8445 32.75C60.9779 32.75 62.6445 31.8333 63.8445 30C65.0779 28.1667 65.6945 25.3333 65.6945 21.5C65.6945 17.6667 65.0779 14.8333 63.8445 13C62.6445 11.1667 60.9779 10.25 58.8445 10.25C56.7445 10.25 55.0779 11.1667 53.8445 13C52.6445 14.8333 52.0445 17.6667 52.0445 21.5C52.0445 25.3333 52.6445 28.1667 53.8445 30C55.0779 31.8333 56.7445 32.75 58.8445 32.75ZM111.137 32.4V39H84.6871V33.75L98.1871 21C99.6204 19.6333 100.587 18.4667 101.087 17.5C101.587 16.5 101.837 15.5167 101.837 14.55C101.837 13.15 101.354 12.0833 100.387 11.35C99.4538 10.5833 98.0704 10.2 96.2371 10.2C94.7038 10.2 93.3204 10.5 92.0871 11.1C90.8538 11.6667 89.8204 12.5333 88.9871 13.7L83.0871 9.9C84.4538 7.86667 86.3371 6.28333 88.7371 5.15C91.1371 3.98333 93.8871 3.4 96.9871 3.4C99.5871 3.4 101.854 3.83333 103.787 4.7C105.754 5.53333 107.27 6.73333 108.337 8.3C109.437 9.83333 109.987 11.65 109.987 13.75C109.987 15.65 109.587 17.4333 108.787 19.1C107.987 20.7667 106.437 22.6667 104.137 24.8L96.0871 32.4H111.137ZM135.479 4V39H127.379V10.5H120.379V4H135.479Z" fill="white"/>
<path d="M33.1 32.4H36.1V29.4H33.1V32.4ZM33.1 39V42H36.1V39H33.1ZM6.65 39H3.65V42H6.65V39ZM6.65 33.75L4.59013 31.569L3.65 32.4569V33.75H6.65ZM20.15 21L22.2099 23.181L22.2151 23.1761L22.2202 23.1712L20.15 21ZM23.05 17.5L25.7147 18.8783L25.7241 18.86L25.7333 18.8416L23.05 17.5ZM22.35 11.35L20.4458 13.6682L20.4906 13.705L20.5368 13.7401L22.35 11.35ZM14.05 11.1L15.3025 13.826L15.3326 13.8122L15.3624 13.7977L14.05 11.1ZM10.95 13.7L9.32557 16.2221L11.7293 17.7703L13.3912 15.4437L10.95 13.7ZM5.05 9.9L2.56015 8.22649L0.853541 10.7656L3.42557 12.4221L5.05 9.9ZM10.7 5.15L11.981 7.86274L11.9963 7.85551L12.0116 7.8481L10.7 5.15ZM25.75 4.7L24.5228 7.43753L24.5511 7.45018L24.5796 7.46225L25.75 4.7ZM30.3 8.3L27.8202 9.98837L27.8409 10.0188L27.8624 10.0487L30.3 8.3ZM30.75 19.1L33.4546 20.3982L33.4546 20.3982L30.75 19.1ZM26.1 24.8L24.0599 22.6005L24.0502 22.6095L24.0405 22.6186L26.1 24.8ZM18.05 32.4L15.9905 30.2186L10.5023 35.4H18.05V32.4ZM30.1 32.4V39H36.1V32.4H30.1ZM33.1 36H6.65V42H33.1V36ZM9.65 39V33.75H3.65V39H9.65ZM8.70987 35.931L22.2099 23.181L18.0901 18.819L4.59013 31.569L8.70987 35.931ZM22.2202 23.1712C23.7308 21.7309 24.9844 20.2901 25.7147 18.8783L20.3853 16.1217C20.1156 16.6432 19.4358 17.5358 18.0798 18.8288L22.2202 23.1712ZM25.7333 18.8416C26.4089 17.4904 26.8 16.0503 26.8 14.55H20.8C20.8 14.9831 20.6911 15.5096 20.3667 16.1584L25.7333 18.8416ZM26.8 14.55C26.8 12.3755 25.9991 10.3527 24.1632 8.95992L20.5368 13.7401C20.6342 13.814 20.8 13.9245 20.8 14.55H26.8ZM24.2542 9.03182C22.5678 7.64659 20.3838 7.2 18.2 7.2V13.2C19.6829 13.2 20.2655 13.5201 20.4458 13.6682L24.2542 9.03182ZM18.2 7.2C16.2661 7.2 14.4259 7.58097 12.7376 8.40229L15.3624 13.7977C16.1408 13.419 17.0673 13.2 18.2 13.2V7.2ZM12.7975 8.37397C11.0621 9.17132 9.62824 10.3891 8.5088 11.9563L13.3912 15.4437C13.9384 14.6776 14.5712 14.162 15.3025 13.826L12.7975 8.37397ZM12.5744 11.1779L6.67443 7.37785L3.42557 12.4221L9.32557 16.2221L12.5744 11.1779ZM7.53985 11.5735C8.57967 10.0265 10.0281 8.78495 11.981 7.86274L9.41898 2.43725C6.57188 3.78172 4.25367 5.70686 2.56015 8.22649L7.53985 11.5735ZM12.0116 7.8481C13.9417 6.90984 16.2311 6.4 18.95 6.4V0.399999C15.4689 0.399999 12.2583 1.05683 9.38842 2.45189L12.0116 7.8481ZM18.95 6.4C21.2208 6.4 23.0527 6.77852 24.5228 7.43753L26.9772 1.96247C24.5806 0.888146 21.8792 0.399999 18.95 0.399999V6.4ZM24.5796 7.46225C26.0851 8.1002 27.1178 8.95668 27.8202 9.98837L32.7798 6.61163C31.3489 4.50998 29.3482 2.96646 26.9204 1.93774L24.5796 7.46225ZM27.8624 10.0487C28.5558 11.0152 28.95 12.2033 28.95 13.75H34.95C34.95 11.0967 34.2442 8.65143 32.7376 6.55128L27.8624 10.0487ZM28.95 13.75C28.95 15.2135 28.6455 16.5517 28.0454 17.8018L33.4546 20.3982C34.4545 18.315 34.95 16.0865 34.95 13.75H28.95ZM28.0454 17.8018C27.4836 18.9723 26.249 20.57 24.0599 22.6005L28.1401 26.9995C30.551 24.7634 32.4164 22.5611 33.4546 20.3982L28.0454 17.8018ZM24.0405 22.6186L15.9905 30.2186L20.1095 34.5814L28.1595 26.9814L24.0405 22.6186ZM18.05 35.4H33.1V29.4H18.05V35.4ZM51.0945 37.45L52.6979 34.9144L52.6979 34.9144L51.0945 37.45ZM45.7445 31.25L43.0226 32.5114L43.0319 32.5315L43.0415 32.5514L45.7445 31.25ZM45.7445 11.8L43.0353 10.5115L43.0319 10.5187L43.0286 10.5258L45.7445 11.8ZM51.0945 5.55L52.6979 8.08558L52.6979 8.08558L51.0945 5.55ZM66.5945 5.55L64.9912 8.08558L64.9912 8.08558L66.5945 5.55ZM71.8945 11.8L69.1726 13.0614L69.1819 13.0815L69.1915 13.1014L71.8945 11.8ZM71.8945 31.25L69.1853 29.9615L69.1819 29.9687L69.1786 29.9758L71.8945 31.25ZM66.5945 37.45L64.9912 34.9144L64.9912 34.9144L66.5945 37.45ZM63.8445 30L61.3554 28.3255L61.3448 28.3412L61.3344 28.357L63.8445 30ZM63.8445 13L61.3344 14.643L61.3448 14.6588L61.3554 14.6745L63.8445 13ZM53.8445 13L51.3554 11.3255L51.3448 11.3412L51.3344 11.357L53.8445 13ZM53.8445 30L51.3344 31.643L51.3448 31.6588L51.3554 31.6745L53.8445 30ZM58.8445 36.6C56.4641 36.6 54.4458 36.0197 52.6979 34.9144L49.4912 39.9856C52.2766 41.747 55.425 42.6 58.8445 42.6V36.6ZM52.6979 34.9144C50.9604 33.8157 49.5333 32.2035 48.4475 29.9486L43.0415 32.5514C44.5558 35.6965 46.6953 38.2176 49.4912 39.9856L52.6979 34.9144ZM48.4665 29.9886C47.4228 27.7366 46.8445 24.937 46.8445 21.5H40.8445C40.8445 25.5963 41.5329 29.2967 43.0226 32.5114L48.4665 29.9886ZM46.8445 21.5C46.8445 18.0615 47.4233 15.2849 48.4605 13.0742L43.0286 10.5258C41.5324 13.7151 40.8445 17.4052 40.8445 21.5H46.8445ZM48.4537 13.0885C49.5425 10.7993 50.9699 9.17832 52.6979 8.08558L49.4912 3.01442C46.6859 4.78835 44.5466 7.33402 43.0353 10.5115L48.4537 13.0885ZM52.6979 8.08558C54.4458 6.98033 56.4641 6.4 58.8445 6.4V0.399999C55.425 0.399999 52.2766 1.253 49.4912 3.01442L52.6979 8.08558ZM58.8445 6.4C61.225 6.4 63.2433 6.98033 64.9912 8.08558L68.1979 3.01442C65.4124 1.253 62.2641 0.399999 58.8445 0.399999V6.4ZM64.9912 8.08558C66.7117 9.17355 68.1176 10.7849 69.1726 13.0614L74.6165 10.5386C73.1381 7.34844 71.0107 4.79311 68.1979 3.01442L64.9912 8.08558ZM69.1915 13.1014C70.2524 15.3049 70.8445 18.0713 70.8445 21.5H76.8445C76.8445 17.3953 76.1366 13.6951 74.5975 10.4986L69.1915 13.1014ZM70.8445 21.5C70.8445 24.9271 70.253 27.7168 69.1853 29.9615L74.6037 32.5385C76.1361 29.3166 76.8445 25.6062 76.8445 21.5H70.8445ZM69.1786 29.9758C68.1267 32.2179 66.7211 33.8205 64.9912 34.9144L68.1979 39.9856C71.0013 38.2129 73.129 35.6821 74.6105 32.5242L69.1786 29.9758ZM64.9912 34.9144C63.2433 36.0197 61.225 36.6 58.8445 36.6V42.6C62.2641 42.6 65.4124 41.747 68.1979 39.9856L64.9912 34.9144ZM58.8445 35.75C62.0225 35.75 64.6185 34.2954 66.3546 31.643L61.3344 28.357C60.6706 29.3713 59.9332 29.75 58.8445 29.75V35.75ZM66.3337 31.6745C68.0651 29.1008 68.6945 25.5424 68.6945 21.5H62.6945C62.6945 25.1243 62.0906 27.2326 61.3554 28.3255L66.3337 31.6745ZM68.6945 21.5C68.6945 17.4576 68.0651 13.8992 66.3337 11.3255L61.3554 14.6745C62.0906 15.7674 62.6945 17.8757 62.6945 21.5H68.6945ZM66.3546 11.357C64.6185 8.7046 62.0225 7.25 58.8445 7.25V13.25C59.9332 13.25 60.6706 13.6287 61.3344 14.643L66.3546 11.357ZM58.8445 7.25C55.6853 7.25 53.1114 8.71511 51.3554 11.3255L56.3337 14.6745C57.0443 13.6182 57.8037 13.25 58.8445 13.25V7.25ZM51.3344 11.357C49.6548 13.9231 49.0445 17.4672 49.0445 21.5H55.0445C55.0445 17.8662 55.6343 15.7435 56.3546 14.643L51.3344 11.357ZM49.0445 21.5C49.0445 25.5328 49.6548 29.0769 51.3344 31.643L56.3546 28.357C55.6343 27.2565 55.0445 25.1338 55.0445 21.5H49.0445ZM51.3554 31.6745C53.1114 34.2849 55.6853 35.75 58.8445 35.75V29.75C57.8037 29.75 57.0443 29.3818 56.3337 28.3255L51.3554 31.6745ZM111.137 32.4H114.137V29.4H111.137V32.4ZM111.137 39V42H114.137V39H111.137ZM84.6871 39H81.6871V42H84.6871V39ZM84.6871 33.75L82.6272 31.569L81.6871 32.4569V33.75H84.6871ZM98.1871 21L100.247 23.181L100.252 23.1761L100.257 23.1712L98.1871 21ZM101.087 17.5L103.752 18.8783L103.761 18.86L103.77 18.8416L101.087 17.5ZM100.387 11.35L98.4829 13.6682L98.5277 13.705L98.5739 13.7401L100.387 11.35ZM92.0871 11.1L93.3396 13.826L93.3697 13.8122L93.3995 13.7977L92.0871 11.1ZM88.9871 13.7L87.3627 16.2221L89.7664 17.7703L91.4283 15.4437L88.9871 13.7ZM83.0871 9.9L80.5973 8.22649L78.8907 10.7656L81.4627 12.4221L83.0871 9.9ZM88.7371 5.15L90.0181 7.86274L90.0334 7.85551L90.0487 7.8481L88.7371 5.15ZM103.787 4.7L102.56 7.43753L102.588 7.45018L102.617 7.46225L103.787 4.7ZM108.337 8.3L105.857 9.98837L105.878 10.0188L105.899 10.0487L108.337 8.3ZM108.787 19.1L111.492 20.3982L111.492 20.3982L108.787 19.1ZM104.137 24.8L102.097 22.6005L102.087 22.6095L102.078 22.6186L104.137 24.8ZM96.0871 32.4L94.0276 30.2186L88.5394 35.4H96.0871V32.4ZM108.137 32.4V39H114.137V32.4H108.137ZM111.137 36H84.6871V42H111.137V36ZM87.6871 39V33.75H81.6871V39H87.6871ZM86.747 35.931L100.247 23.181L96.1272 18.819L82.6272 31.569L86.747 35.931ZM100.257 23.1712C101.768 21.7309 103.022 20.2901 103.752 18.8783L98.4225 16.1217C98.1527 16.6432 97.473 17.5358 96.1169 18.8288L100.257 23.1712ZM103.77 18.8416C104.446 17.4904 104.837 16.0503 104.837 14.55H98.8371C98.8371 14.9831 98.7282 15.5096 98.4038 16.1584L103.77 18.8416ZM104.837 14.55C104.837 12.3755 104.036 10.3527 102.2 8.95992L98.5739 13.7401C98.6713 13.814 98.8371 13.9245 98.8371 14.55H104.837ZM102.291 9.03182C100.605 7.64659 98.4209 7.2 96.2371 7.2V13.2C97.72 13.2 98.3026 13.5201 98.4829 13.6682L102.291 9.03182ZM96.2371 7.2C94.3032 7.2 92.463 7.58097 90.7747 8.40229L93.3995 13.7977C94.1779 13.419 95.1044 13.2 96.2371 13.2V7.2ZM90.8346 8.37397C89.0992 9.17132 87.6654 10.3891 86.5459 11.9563L91.4283 15.4437C91.9755 14.6776 92.6084 14.162 93.3396 13.826L90.8346 8.37397ZM90.6115 11.1779L84.7115 7.37785L81.4627 12.4221L87.3627 16.2221L90.6115 11.1779ZM85.577 11.5735C86.6168 10.0265 88.0652 8.78495 90.0181 7.86274L87.4561 2.43725C84.609 3.78172 82.2908 5.70686 80.5973 8.22649L85.577 11.5735ZM90.0487 7.8481C91.9788 6.90984 94.2682 6.4 96.9871 6.4V0.399999C93.506 0.399999 90.2954 1.05683 87.4255 2.45189L90.0487 7.8481ZM96.9871 6.4C99.2579 6.4 101.09 6.77852 102.56 7.43753L105.014 1.96247C102.618 0.888146 99.9163 0.399999 96.9871 0.399999V6.4ZM102.617 7.46225C104.122 8.1002 105.155 8.95668 105.857 9.98837L110.817 6.61163C109.386 4.50998 107.385 2.96646 104.958 1.93774L102.617 7.46225ZM105.899 10.0487C106.593 11.0152 106.987 12.2033 106.987 13.75H112.987C112.987 11.0967 112.281 8.65143 110.775 6.55128L105.899 10.0487ZM106.987 13.75C106.987 15.2135 106.683 16.5517 106.083 17.8018L111.492 20.3982C112.492 18.315 112.987 16.0865 112.987 13.75H106.987ZM106.083 17.8018C105.521 18.9723 104.286 20.57 102.097 22.6005L106.177 26.9995C108.588 24.7634 110.454 22.5611 111.492 20.3982L106.083 17.8018ZM102.078 22.6186L94.0276 30.2186L98.1466 34.5814L106.197 26.9814L102.078 22.6186ZM96.0871 35.4H111.137V29.4H96.0871V35.4ZM135.479 4H138.479V0.999998H135.479V4ZM135.479 39V42H138.479V39H135.479ZM127.379 39H124.379V42H127.379V39ZM127.379 10.5H130.379V7.5H127.379V10.5ZM120.379 10.5H117.379V13.5H120.379V10.5ZM120.379 4V0.999998H117.379V4H120.379ZM132.479 4V39H138.479V4H132.479ZM135.479 36H127.379V42H135.479V36ZM130.379 39V10.5H124.379V39H130.379ZM127.379 7.5H120.379V13.5H127.379V7.5ZM123.379 10.5V4H117.379V10.5H123.379ZM120.379 7H135.479V0.999998H120.379V7Z" fill="black"/>
</svg>
